<?xml version="1.0" encoding="UTF-8" standalone="no"?>
<svg
   xmlns:dc="http://purl.org/dc/elements/1.1/"
   xmlns:cc="http://creativecommons.org/ns#"
   xmlns:rdf="http://www.w3.org/1999/02/22-rdf-syntax-ns#"
   xmlns:svg="http://www.w3.org/2000/svg"
   xmlns="http://www.w3.org/2000/svg"
   xmlns:sodipodi="http://sodipodi.sourceforge.net/DTD/sodipodi-0.dtd"
   xmlns:inkscape="http://www.inkscape.org/namespaces/inkscape"
   version="1.1"
   id="svg2"
   viewBox="0 0 54 32"
   inkscape:version="0.92.4 (5da689c313, 2019-01-14)"
   sodipodi:docname="configure.svg"
   width="54"
   height="32">
  <sodipodi:namedview
     pagecolor="#717171"
     bordercolor="#666666"
     borderopacity="1"
     objecttolerance="10"
     gridtolerance="10"
     guidetolerance="10"
     inkscape:pageopacity="0"
     inkscape:pageshadow="2"
     inkscape:window-width="1920"
     inkscape:window-height="1009"
     id="namedview12"
     showgrid="true"
     inkscape:zoom="5.6568542"
     inkscape:cx="-19.412242"
     inkscape:cy="-17.436288"
     inkscape:window-x="0"
     inkscape:window-y="0"
     inkscape:window-maximized="1"
     inkscape:current-layer="svg2"
     fit-margin-top="0"
     fit-margin-left="0"
     fit-margin-right="0"
     fit-margin-bottom="0"
     inkscape:snap-bbox="true"
     inkscape:bbox-nodes="true"
     showguides="true"
     inkscape:guide-bbox="true">
    <inkscape:grid
       type="xygrid"
       id="grid823"
       originx="-16"
       originy="7.1054274e-15" />
  </sodipodi:namedview>
  <metadata
     id="metadata16">
    <rdf:RDF>
      <cc:Work
         rdf:about="">
        <dc:format>image/svg+xml</dc:format>
        <dc:type
           rdf:resource="http://purl.org/dc/dcmitype/StillImage" />
        <dc:title />
      </cc:Work>
    </rdf:RDF>
  </metadata>
  <defs
     id="defs3051">
    <style
       id="current-color-scheme"
       type="text/css">
      .ColorScheme-Text {
        color:#31363b;
      }
      </style>
  </defs>
  <g
     id="16-16-configure"
     transform="translate(-16,16)">
    <path
       id="path825-6"
       d="M 5.5,2 A 2.5,2.5 0 0 0 3.0546875,4 H 1 V 5 H 3.0507812 A 2.5,2.5 0 0 0 5.5,7 2.5,2.5 0 0 0 8,4.5 2.5,2.5 0 0 0 5.5,2 Z m 0,1 A 1.5,1.5 0 0 1 7,4.5 1.5,1.5 0 0 1 5.5,6 1.5,1.5 0 0 1 4,4.5 1.5,1.5 0 0 1 5.5,3 Z M 10,4 v 1 h 5 V 4 Z m 2.5,5 A 2.5,2.5 0 0 0 10,11.5 2.5,2.5 0 0 0 12.5,14 2.5,2.5 0 0 0 15,11.5 2.5,2.5 0 0 0 12.5,9 Z m 0,1 A 1.5,1.5 0 0 1 14,11.5 1.5,1.5 0 0 1 12.5,13 1.5,1.5 0 0 1 11,11.5 1.5,1.5 0 0 1 12.5,10 Z M 1,11 v 1 h 7 v -1 z"
       style="opacity:1;fill:#ffffff;fill-opacity:1;stroke:none"
       inkscape:connector-curvature="0" />
    <rect
       y="0"
       x="0"
       height="16"
       width="16"
       id="rect852-7"
       style="opacity:1;fill:#808000;fill-opacity:0;stroke:none" />
  </g>
  <g
     id="22-22-configure"
     transform="translate(22)">
    <path
       id="path867"
       d="m -14.5,13 c -1.76162,0 -3.2046,1.306127 -3.449219,3 H -20 v 1 h 2.050781 c 0.244619,1.693873 1.687599,3 3.449219,3 1.932997,0 3.5,-1.567003 3.5,-3.5 0,-1.932997 -1.567003,-3.5 -3.5,-3.5 z m 0,1 c 1.380712,0 2.5,1.119288 2.5,2.5 0,1.380712 -1.119288,2.5 -2.5,2.5 -1.380712,0 -2.5,-1.119288 -2.5,-2.5 0,-1.380712 1.119288,-2.5 2.5,-2.5 z m 5.5,2 v 1 h 7 v -1 z m 3.5,6 C -7.432997,22 -9,23.567003 -9,25.5 -9,27.432997 -7.432997,29 -5.5,29 -3.567003,29 -2,27.432997 -2,25.5 -2,23.567003 -3.567003,22 -5.5,22 Z m 0,1 C -4.119288,23 -3,24.119288 -3,25.5 -3,26.880712 -4.119288,28 -5.5,28 -6.880712,28 -8,26.880712 -8,25.5 -8,24.119288 -6.880712,23 -5.5,23 Z M -20,25 v 1 h 9 v -1 z"
       style="fill:#ffffff;fill-opacity:1;stroke-width:1.16666663"
       inkscape:connector-curvature="0" />
    <rect
       y="10"
       x="-22"
       height="22"
       width="22"
       id="rect920"
       style="fill:#800080;fill-opacity:0" />
  </g>
  <g
     id="configure"
     transform="rotate(180,27,16)">
    <path
       id="path949"
       d="M 7.5,5 C 5.0147186,5 3,7.0147186 3,9.5 3,11.985281 5.0147186,14 7.5,14 9.9852814,14 12,11.985281 12,9.5 12,7.0147186 9.9852814,5 7.5,5 Z m 0,1 C 9.4329966,6 11,7.5670034 11,9.5 11,11.432997 9.4329966,13 7.5,13 5.5670034,13 4,11.432997 4,9.5 4,7.5670034 5.5670034,6 7.5,6 Z M 14,9 v 1 H 29 V 9 Z m 7.5,9 C 19.014719,18 17,20.014719 17,22.5 17,24.985281 19.014719,27 21.5,27 23.985281,27 26,24.985281 26,22.5 26,20.014719 23.985281,18 21.5,18 Z m 0,1 C 23.432997,19 25,20.567003 25,22.5 25,24.432997 23.432997,26 21.5,26 19.567003,26 18,24.432997 18,22.5 18,20.567003 19.567003,19 21.5,19 Z M 3,22 v 1 h 12 v -1 z m 22,0 v 1 h 4 v -1 z"
       style="fill:#ffffff;fill-opacity:1;stroke-width:1.28571427"
       inkscape:connector-curvature="0"
       sodipodi:nodetypes="sssssssssscccccsssssssssscccccccccc" />
    <rect
       y="0"
       x="0"
       height="32"
       width="32"
       id="rect1004"
       style="fill:#ff00ff;fill-opacity:0" />
  </g>
</svg>
