<?xml version="1.0" encoding="UTF-8" standalone="no"?>
<!-- Created with Inkscape (http://www.inkscape.org/) -->

<svg
   xmlns:dc="http://purl.org/dc/elements/1.1/"
   xmlns:cc="http://creativecommons.org/ns#"
   xmlns:rdf="http://www.w3.org/1999/02/22-rdf-syntax-ns#"
   xmlns:svg="http://www.w3.org/2000/svg"
   xmlns="http://www.w3.org/2000/svg"
   xmlns:sodipodi="http://sodipodi.sourceforge.net/DTD/sodipodi-0.dtd"
   xmlns:inkscape="http://www.inkscape.org/namespaces/inkscape"
   width="22"
   height="22"
   id="svg3869"
   version="1.1"
   inkscape:version="0.92.4 (5da689c313, 2019-01-14)"
   sodipodi:docname="go.svg"
   viewBox="0 0 22 22">
  <defs
     id="defs3871">
    <style
       type="text/css"
       id="current-color-scheme">
      .ColorScheme-Text {
        color:#31363b;
      }
      .ColorScheme-Background {
        color:#eff0f1;
      }
      .ColorScheme-Highlight {
        color:#3daee9;
      }
      .ColorScheme-ViewText {
        color:#31363b;
      }
      .ColorScheme-ViewBackground {
        color:#fcfcfc;
      }
      .ColorScheme-ViewHover {
        color:#93cee9;
      }
      .ColorScheme-ViewFocus{
        color:#3daee9;
      }
      .ColorScheme-ButtonText {
        color:#31363b;
      }
      .ColorScheme-ButtonBackground {
        color:#eff0f1;
      }
      .ColorScheme-ButtonHover {
        color:#93cee9;
      }
      .ColorScheme-ButtonFocus{
        color:#3daee9;
      }
      </style>
  </defs>
  <sodipodi:namedview
     id="base"
     pagecolor="#ffffff"
     bordercolor="#666666"
     borderopacity="1.0"
     inkscape:pageopacity="0.0"
     inkscape:pageshadow="2"
     inkscape:zoom="11.313709"
     inkscape:cx="-6.0728453"
     inkscape:cy="9.8605385"
     inkscape:document-units="px"
     inkscape:current-layer="layer1"
     showgrid="true"
     fit-margin-top="0"
     fit-margin-left="0"
     fit-margin-right="0"
     fit-margin-bottom="0"
     inkscape:window-width="1920"
     inkscape:window-height="1009"
     inkscape:window-x="0"
     inkscape:window-y="0"
     inkscape:window-maximized="1"
     inkscape:showpageshadow="false"
     inkscape:pagecheckerboard="true">
    <inkscape:grid
       type="xygrid"
       id="grid4132" />
  </sodipodi:namedview>
  <metadata
     id="metadata3874">
    <rdf:RDF>
      <cc:Work
         rdf:about="">
        <dc:format>image/svg+xml</dc:format>
        <dc:type
           rdf:resource="http://purl.org/dc/dcmitype/StillImage" />
        <dc:title></dc:title>
      </cc:Work>
    </rdf:RDF>
  </metadata>
  <g
     inkscape:label="Capa 1"
     inkscape:groupmode="layer"
     id="layer1"
     transform="translate(-326,-534.3622)">
    <g
       style="clip-rule:evenodd;fill-rule:evenodd;stroke-linejoin:round;stroke-miterlimit:1.41420996"
       id="go-home"
       transform="translate(326,534.3622)">
      <path
         inkscape:connector-curvature="0"
         id="path2"
         style="fill:#FFFFFF"
         d="M 8,20 H 3 V 11.7 L 2.707,11.707 2,11 10.293,2.707 11,2 14,5 V 3 h 4 v 6 l 2,2 -0.707,0.707 L 19,11.7 V 20 H 12 V 13 H 8 Z m 7,-12.586 -4,-4 -7,7 V 19 h 3 v -7 h 6 v 7 h 5 v -8.586 l -1,-1 V 4 h -2 z" />
      <rect
         y="0"
         x="0"
         height="22"
         width="22"
         id="rect817"
         style="fill:#ffffff;fill-opacity:0;stroke-width:0.95913571" />
    </g>
    <g
       style="clip-rule:evenodd;fill-rule:evenodd;stroke-linejoin:round;stroke-miterlimit:1.41420996"
       id="go-next"
       transform="translate(348,534.3622)">
      <path
         inkscape:connector-curvature="0"
         id="path2-9"
         style="fill:#FFFFFF"
         d="m 7.356,3 v 0 l 8,8 -8,8 H 7.346 L 6.644,18.298 13.942,11 6.649,3.707 Z" />
      <rect
         y="0"
         x="0"
         height="22"
         width="22"
         id="rect817-0"
         style="fill:#ffffff;fill-opacity:0;stroke-width:0.99790585" />
    </g>
    <g
       style="clip-rule:evenodd;fill-rule:evenodd;stroke-linejoin:round;stroke-miterlimit:1.41420996"
       id="go-previous"
       transform="matrix(-1,0,0,1,392,534.3622)">
      <path
         inkscape:connector-curvature="0"
         id="path2-9-5"
         style="fill:#FFFFFF"
         d="m 7.356,3 v 0 l 8,8 -8,8 H 7.346 L 6.644,18.298 13.942,11 6.649,3.707 Z" />
      <rect
         y="0"
         x="0"
         height="22"
         width="22"
         id="rect817-0-2"
         style="fill:#ffffff;fill-opacity:0;stroke-width:0.99790585" />
    </g>
    <g
       style="clip-rule:evenodd;fill-rule:evenodd;stroke-linejoin:round;stroke-miterlimit:1.41420996"
       id="go-down"
       transform="rotate(90,-48.6811,485.6811)">
      <path
         inkscape:connector-curvature="0"
         id="path2-9-5-8"
         style="fill:#FFFFFF"
         d="m 7.356,3 v 0 l 8,8 -8,8 H 7.346 L 6.644,18.298 13.942,11 6.649,3.707 Z" />
      <rect
         y="0"
         x="0"
         height="22"
         width="22"
         id="rect817-0-2-3"
         style="fill:#ffffff;fill-opacity:0;stroke-width:0.99790585" />
    </g>
    <g
       style="clip-rule:evenodd;fill-rule:evenodd;stroke-linejoin:round;stroke-miterlimit:1.41420996"
       id="go-up"
       transform="matrix(0,-1,-1,0,414,556.3622)">
      <path
         inkscape:connector-curvature="0"
         id="path2-9-5-8-1"
         style="fill:#FFFFFF"
         d="m 7.356,3 v 0 l 8,8 -8,8 H 7.346 L 6.644,18.298 13.942,11 6.649,3.707 Z" />
      <rect
         y="0"
         x="0"
         height="22"
         width="22"
         id="rect817-0-2-3-5"
         style="fill:#ffffff;fill-opacity:0;stroke-width:0.99790585" />
    </g>
    <g
       id="16-16-go-jump-today"
       transform="translate(288,540.3622)">
      <path
         inkscape:connector-curvature="0"
         id="path876"
         d="M 5,1 V 6 H 6 V 1 Z m 5,0 v 5 h 1 V 1 Z M 1,3 v 4 1 7 H 15 V 8 7 3 h -3 v 1 h 2 V 7 H 2 V 4 H 4 V 3 Z M 7,3 V 4 H 9 V 3 Z M 2,8 h 12 v 6 H 2 Z m 5,1 v 1 h 1 v 3 H 9 V 10 9 H 8 Z"
         style="opacity:1;fill:#ffffff;fill-opacity:1;stroke:none;stroke-width:1;stroke-miterlimit:4;stroke-dasharray:none;stroke-opacity:1" />
      <rect
         y="0"
         x="0"
         height="16"
         width="16"
         id="rect867"
         style="opacity:1;fill:#000000;fill-opacity:0;stroke:none;stroke-width:1;stroke-miterlimit:4;stroke-dasharray:none;stroke-opacity:1" />
      <rect
         y="0"
         x="0"
         height="16"
         width="16"
         id="rect869"
         style="opacity:1;fill:#000000;fill-opacity:0;stroke:none;stroke-width:1;stroke-miterlimit:4;stroke-dasharray:none;stroke-opacity:1" />
    </g>
    <g
       style="clip-rule:evenodd;fill-rule:evenodd;stroke-linejoin:round;stroke-miterlimit:1.41420996"
       id="go-jump-today"
       transform="translate(304,534.3622)">
      <path
         inkscape:connector-curvature="0"
         id="path2-3"
         style="fill:#ffffff"
         d="M 19,8 V 6 5 H 16 V 4 h 2 2 V 20 H 18 2 V 18 4 H 4 6 V 5 H 3 v 1 2 z m 0,1 H 3 v 9 1 h 15 1 z m -7,8 h -1 v -4.5 l -1,0.056 v -0.88 L 11.886,11 H 12 Z M 8,2 V 7 H 7 V 2 Z m 7,0 V 7 H 14 V 2 Z M 13,5 H 9 V 4 h 4 z"
         sodipodi:nodetypes="ccccccccccccccccccccccccccccccccccccccccccccccccc" />
      <rect
         y="0"
         x="0"
         height="22"
         width="22"
         id="rect817-6"
         style="fill:#ffffff;fill-opacity:0;stroke-width:1.07718778" />
    </g>
  </g>
</svg>
