<?xml version="1.0" encoding="UTF-8" standalone="no"?>
<svg
   xmlns:dc="http://purl.org/dc/elements/1.1/"
   xmlns:cc="http://creativecommons.org/ns#"
   xmlns:rdf="http://www.w3.org/1999/02/22-rdf-syntax-ns#"
   xmlns:svg="http://www.w3.org/2000/svg"
   xmlns="http://www.w3.org/2000/svg"
   xmlns:xlink="http://www.w3.org/1999/xlink"
   xmlns:sodipodi="http://sodipodi.sourceforge.net/DTD/sodipodi-0.dtd"
   xmlns:inkscape="http://www.inkscape.org/namespaces/inkscape"
   viewBox="0 0 22 22"
   id="svg"
   version="1.1"
   inkscape:version="0.92.4 (5da689c313, 2019-01-14)"
   width="22"
   height="22"
   sodipodi:docname="notifications.svg">
  <defs
     id="defs81">
    <style
       id="current-color-scheme"
       type="text/css">
      .ColorScheme-Text {
        color:#7B7C7E;
      }
      .ColorScheme-Background{
        color:#EFF0F1;
      }
      .ColorScheme-Highlight{
        color:#3DAEE6;
      }
      .ColorScheme-ViewText {
        color:#7B7C7E;
      }
      .ColorScheme-ViewBackground{
        color:#FCFCFC;
      }
      .ColorScheme-ViewHover {
        color:#3DAEE6;
      }
      .ColorScheme-ViewFocus{
        color:#1E92FF;
      }
      .ColorScheme-ButtonText {
        color:#7B7C7E;
      }
      .ColorScheme-ButtonBackground{
        color:#EFF0F1;
      }
      .ColorScheme-ButtonHover {
        color:#3DAEE6;
      }
      .ColorScheme-ButtonFocus{
        color:#1E92FF;
      }
</style>
    <linearGradient
       inkscape:collect="always"
       xlink:href="#linearGradient4254"
       id="linearGradient5399"
       gradientUnits="userSpaceOnUse"
       x1="317.91653"
       y1="909.77173"
       x2="317.91653"
       y2="912.77173" />
    <linearGradient
       id="linearGradient4254">
      <stop
         id="stop4256"
         offset="0"
         style="stop-color:#888888;stop-opacity:1;" />
      <stop
         id="stop4258"
         offset="1"
         style="stop-color:#232323;stop-opacity:1;" />
    </linearGradient>
  </defs>
  <metadata
     id="metadata34">
    <rdf:RDF>
      <cc:Work
         rdf:about="">
        <dc:format>image/svg+xml</dc:format>
        <dc:type
           rdf:resource="http://purl.org/dc/dcmitype/StillImage" />
        <dc:title />
      </cc:Work>
    </rdf:RDF>
  </metadata>
  <sodipodi:namedview
     pagecolor="#000000"
     bordercolor="#666666"
     borderopacity="1"
     objecttolerance="10"
     gridtolerance="10"
     guidetolerance="10"
     inkscape:pageopacity="0"
     inkscape:pageshadow="2"
     inkscape:window-width="1920"
     inkscape:window-height="1009"
     id="namedview32"
     showgrid="true"
     inkscape:zoom="8"
     inkscape:cx="-43.619643"
     inkscape:cy="2.9105671"
     inkscape:window-x="0"
     inkscape:window-y="0"
     inkscape:window-maximized="1"
     inkscape:current-layer="svg"
     borderlayer="true"
     showguides="true"
     inkscape:guide-bbox="true"
     inkscape:snap-bbox="true"
     inkscape:showpageshadow="true"
     showborder="true"
     inkscape:pagecheckerboard="true"
     fit-margin-top="0"
     fit-margin-left="0"
     fit-margin-right="0"
     fit-margin-bottom="0"
     inkscape:bbox-nodes="true">
    <inkscape:grid
       type="xygrid"
       id="grid909"
       originx="-5"
       originy="-5" />
  </sodipodi:namedview>
  <g
     id="notifications-disabled">
    <path
       inkscape:connector-curvature="0"
       id="path2-36"
       d="M 11,2 C 9.896,2 9,2.896 9,4 V 4.3417969 C 6.68,5.1627969 5.013,7.37175 5,9.96875 V 10 13 H 4 c -1.104,0 -2,0.896 -2,2 0,0.778992 0.4510577,1.447173 1.1015625,1.777344 l 0.796875,-0.796875 C 3.3964853,15.927213 3,15.516 3,15 3,14.448 3.448,14 4,14 H 5.8789062 L 6,13.878906 V 10 c 0,-2.76 2.24,-5 5,-5 1.093703,0 2.096569,0.3622128 2.919922,0.9589844 L 14.642578,5.2363281 C 14.14916,4.8582602 13.59692,4.5529872 13,4.3417969 V 4 C 13,2.896 12.104,2 11,2 Z m 0,1 c 0.552,0 1,0.448 1,1 V 4.082031 C 11.675,4.0270314 11.341,4 11,4 10.659,4 10.325,4.0270313 10,4.0820312 V 4 C 10,3.448 10.448,3 11,3 Z M 16.494141,7.6269531 15.714844,8.40625 C 15.882402,8.9003986 15.996396,9.4191442 16,9.96875 V 10 14 h 2 c 0.552,0 1,0.448 1,1 0,0.552 -0.448,1 -1,1 H 8.1210938 l -1,1 H 8 c 0,1.656 1.344,3 3,3 1.656,0 3,-1.344 3,-3 h 4 c 1.104,0 2,-0.896 2,-2 0,-1.104 -0.896,-2 -2,-2 H 17 V 10 C 17,9.1546293 16.810326,8.3569073 16.494141,7.6269531 Z M 9,17 h 4 c 0,1.104 -0.896,2 -2,2 -1.104,0 -2,-0.896 -2,-2 z"
       style="clip-rule:evenodd;fill:#ffffff;fill-rule:evenodd;stroke-linejoin:round;stroke-miterlimit:1.41420996" />
    <rect
       y="0"
       x="0"
       height="22"
       width="22"
       id="rect822-7"
       style="clip-rule:evenodd;fill:#ffffff;fill-opacity:0;fill-rule:evenodd;stroke-width:0.91742021;stroke-linejoin:round;stroke-miterlimit:1.41420996" />
    <path
       inkscape:connector-curvature="0"
       id="path830"
       d="M 18.646484,2.6464844 2.6464844,18.646484 3.3535156,19.353516 19.353516,3.3535156 Z"
       style="color:#000000;font-style:normal;font-variant:normal;font-weight:normal;font-stretch:normal;font-size:medium;line-height:normal;font-family:sans-serif;font-variant-ligatures:normal;font-variant-position:normal;font-variant-caps:normal;font-variant-numeric:normal;font-variant-alternates:normal;font-feature-settings:normal;text-indent:0;text-align:start;text-decoration:none;text-decoration-line:none;text-decoration-style:solid;text-decoration-color:#000000;letter-spacing:normal;word-spacing:normal;text-transform:none;writing-mode:lr-tb;direction:ltr;text-orientation:mixed;dominant-baseline:auto;baseline-shift:baseline;text-anchor:start;white-space:normal;shape-padding:0;clip-rule:nonzero;display:inline;overflow:visible;visibility:visible;opacity:1;isolation:auto;mix-blend-mode:normal;color-interpolation:sRGB;color-interpolation-filters:linearRGB;solid-color:#000000;solid-opacity:1;vector-effect:none;fill:#ffffff;fill-opacity:1;fill-rule:nonzero;stroke:none;stroke-width:1px;stroke-linecap:butt;stroke-linejoin:miter;stroke-miterlimit:4;stroke-dasharray:none;stroke-dashoffset:0;stroke-opacity:1;color-rendering:auto;image-rendering:auto;shape-rendering:auto;text-rendering:auto;enable-background:accumulate" />
  </g>
</svg>
