<?xml version="1.0" encoding="UTF-8" standalone="no"?>
<svg
   xmlns:dc="http://purl.org/dc/elements/1.1/"
   xmlns:cc="http://creativecommons.org/ns#"
   xmlns:rdf="http://www.w3.org/1999/02/22-rdf-syntax-ns#"
   xmlns:svg="http://www.w3.org/2000/svg"
   xmlns="http://www.w3.org/2000/svg"
   xmlns:sodipodi="http://sodipodi.sourceforge.net/DTD/sodipodi-0.dtd"
   xmlns:inkscape="http://www.inkscape.org/namespaces/inkscape"
   viewBox="0 0 32 32"
   id="svg"
   version="1.1"
   inkscape:version="0.92.4 (5da689c313, 2019-01-14)"
   width="32"
   height="32"
   sodipodi:docname="printer.svg">
  <defs
     id="defs81">
    <style
       id="current-color-scheme"
       type="text/css">
      .ColorScheme-Text {
        color:#7B7C7E;
      }
      .ColorScheme-Background{
        color:#EFF0F1;
      }
      .ColorScheme-Highlight{
        color:#3DAEE6;
      }
      .ColorScheme-ViewText {
        color:#7B7C7E;
      }
      .ColorScheme-ViewBackground{
        color:#FCFCFC;
      }
      .ColorScheme-ViewHover {
        color:#3DAEE6;
      }
      .ColorScheme-ViewFocus{
        color:#1E92FF;
      }
      .ColorScheme-ButtonText {
        color:#7B7C7E;
      }
      .ColorScheme-ButtonBackground{
        color:#EFF0F1;
      }
      .ColorScheme-ButtonHover {
        color:#3DAEE6;
      }
      .ColorScheme-ButtonFocus{
        color:#1E92FF;
      }
</style>
    <style
       type="text/css"
       id="style3">
      .ColorScheme-Text {
        color:#31363b;
      }
      .ColorScheme-Background {
        color:#eff0f1;
      }
      .ColorScheme-Highlight {
        color:#3daee9;
      }
      .ColorScheme-ViewText {
        color:#31363b;
      }
      .ColorScheme-ViewBackground {
        color:#fcfcfc;
      }
      .ColorScheme-ViewHover {
        color:#93cee9;
      }
      .ColorScheme-ViewFocus{
        color:#3daee9;
      }
      .ColorScheme-ButtonText {
        color:#31363b;
      }
      .ColorScheme-ButtonBackground {
        color:#eff0f1;
      }
      .ColorScheme-ButtonHover {
        color:#93cee9;
      }
      .ColorScheme-ButtonFocus{
        color:#3daee9;
      }
      </style>
  </defs>
  <metadata
     id="metadata34">
    <rdf:RDF>
      <cc:Work
         rdf:about="">
        <dc:format>image/svg+xml</dc:format>
        <dc:type
           rdf:resource="http://purl.org/dc/dcmitype/StillImage" />
        <dc:title></dc:title>
      </cc:Work>
    </rdf:RDF>
  </metadata>
  <sodipodi:namedview
     pagecolor="#ffffff"
     bordercolor="#666666"
     borderopacity="1"
     objecttolerance="10"
     gridtolerance="10"
     guidetolerance="10"
     inkscape:pageopacity="0"
     inkscape:pageshadow="2"
     inkscape:window-width="1920"
     inkscape:window-height="1009"
     id="namedview32"
     showgrid="true"
     inkscape:zoom="5.6568542"
     inkscape:cx="9.3046778"
     inkscape:cy="23.376827"
     inkscape:window-x="0"
     inkscape:window-y="0"
     inkscape:window-maximized="1"
     inkscape:current-layer="svg"
     borderlayer="true"
     showguides="true"
     inkscape:guide-bbox="true"
     inkscape:snap-bbox="true"
     inkscape:showpageshadow="false"
     inkscape:pagecheckerboard="true"
     inkscape:bbox-nodes="true"
     fit-margin-top="0"
     fit-margin-left="0"
     fit-margin-right="0"
     fit-margin-bottom="0">
    <inkscape:grid
       type="xygrid"
       id="grid827"
       originx="32"
       originy="0" />
  </sodipodi:namedview>
  <g
     id="16-16-printer"
     transform="translate(54,13)">
    <path
       id="rect826"
       d="M 3,1 V 2 4 H 1 v 4 1 3 h 2 v 2 1 h 1 9 v -1 -2 h 2 V 9 8 4 H 13 V 1 H 4 Z m 1,1 h 8 V 4 H 4 Z M 2,5 H 14 V 8 H 2 Z m 8,1 v 1 h 3 V 6 Z M 2,9 h 1 v 2 H 2 Z m 2,0 h 8 v 5 H 4 Z m 9,0 h 1 v 2 h -1 z m -8,1 v 1 h 6 v -1 z m 0,2 v 1 h 6 v -1 z"
       style="opacity:1;fill:#ffffff;fill-opacity:1;stroke-linecap:square"
       inkscape:connector-curvature="0" />
    <rect
       y="0"
       x="0"
       height="16"
       width="16"
       id="rect863"
       style="opacity:1;fill:#00ff00;fill-opacity:0;stroke-linecap:square" />
  </g>
  <g
     id="22-22-printer"
     transform="translate(32,10)">
    <path
       id="rect829"
       d="M 5,2 V 3 6 H 3 2 v 1 10 h 1 2 v 2 1 h 12 v -1 -2 h 3 V 16 7 6 H 19 17 V 2 H 6 Z M 6,3 H 16 V 6 H 6 Z M 3,7 h 2 1 13 v 6.009766 H 17 V 13 h -1 v 0.0098 H 6 V 13 H 5 v 0.0098 H 3 Z m 13,1 a 2,2 0 0 0 -2,2 2,2 0 0 0 2,2 2,2 0 0 0 2,-2 2,2 0 0 0 -2,-2 z m 0,1 a 1,1 0 0 1 1,1 1,1 0 0 1 -1,1 1,1 0 0 1 -1,-1 1,1 0 0 1 1,-1 z M 3,14 h 2 v 2 H 3 Z m 3,0 h 10 v 2 1 2 H 6 v -2 -1 z m 11,0 h 2 v 2 H 17 Z M 7,15 v 1 h 8 v -1 z m 0,2 v 1 h 8 v -1 z"
       style="fill:#ffffff;fill-opacity:1"
       inkscape:connector-curvature="0" />
    <rect
       y="0"
       x="0"
       height="22"
       width="22"
       id="rect865"
       style="fill:#ffff00;fill-opacity:0" />
  </g>
  <g
     id="printer">
    <path
       id="rect873"
       d="m 8,3 v 1 6 H 4 3 v 1 7 1 5 h 1 2 v 1 1 h 2 v 2 1 h 16 v -1 -2 h 2 v -1 -1 h 3 V 23 11 10 H 28 24 V 3 H 9 Z m 1,1 h 14 v 6 H 9 Z m -5,7 h 4 1 14 1 4 v 7 H 4 Z m 20.5,1 A 2.5,2.5 0 0 0 22,14.5 2.5,2.5 0 0 0 24.5,17 2.5,2.5 0 0 0 27,14.5 2.5,2.5 0 0 0 24.5,12 Z m 0,1 A 1.5,1.5 0 0 1 26,14.5 1.5,1.5 0 0 1 24.5,16 1.5,1.5 0 0 1 23,14.5 1.5,1.5 0 0 1 24.5,13 Z M 4,19 h 4 v 2 2 1 1 H 7 V 24 23 21 H 6 v 2 H 4 Z m 5,0 h 14 v 4 1 4 H 9 v -4 -1 z m 15,0 h 4 v 4 h -2 v -2 h -1 v 4 h -1 z m -13,1 v 1 h 10 v -1 z m 0,3 v 1 h 10 v -1 z m 5,3 v 1 h 5 v -1 z"
       style="fill:#ffffff;fill-opacity:1"
       inkscape:connector-curvature="0" />
    <rect
       y="0"
       x="0"
       height="32"
       width="32"
       id="rect943"
       style="fill:#ffff00;fill-opacity:0" />
  </g>
</svg>
