<?xml version="1.0" encoding="UTF-8" standalone="no"?>
<svg
   xmlns:dc="http://purl.org/dc/elements/1.1/"
   xmlns:cc="http://creativecommons.org/ns#"
   xmlns:rdf="http://www.w3.org/1999/02/22-rdf-syntax-ns#"
   xmlns:svg="http://www.w3.org/2000/svg"
   xmlns="http://www.w3.org/2000/svg"
   xmlns:sodipodi="http://sodipodi.sourceforge.net/DTD/sodipodi-0.dtd"
   xmlns:inkscape="http://www.inkscape.org/namespaces/inkscape"
   version="1.1"
   id="svg2"
   viewBox="0 0 54 32"
   inkscape:version="0.92.4 (5da689c313, 2019-01-14)"
   sodipodi:docname="tools.svg"
   width="54"
   height="32">
  <sodipodi:namedview
     pagecolor="#ffffff"
     bordercolor="#666666"
     borderopacity="1"
     objecttolerance="10"
     gridtolerance="10"
     guidetolerance="10"
     inkscape:pageopacity="0"
     inkscape:pageshadow="2"
     inkscape:window-width="1920"
     inkscape:window-height="1017"
     id="namedview12"
     showgrid="true"
     inkscape:zoom="7.375"
     inkscape:cx="31.080879"
     inkscape:cy="0.42856599"
     inkscape:window-x="-8"
     inkscape:window-y="-8"
     inkscape:window-maximized="1"
     inkscape:current-layer="svg2"
     inkscape:pagecheckerboard="true"
     fit-margin-top="0"
     fit-margin-left="0"
     fit-margin-right="0"
     fit-margin-bottom="0">
    <inkscape:grid
       type="xygrid"
       id="grid818"
       originx="0"
       originy="0" />
  </sodipodi:namedview>
  <metadata
     id="metadata18">
    <rdf:RDF>
      <cc:Work
         rdf:about="">
        <dc:format>image/svg+xml</dc:format>
        <dc:type
           rdf:resource="http://purl.org/dc/dcmitype/StillImage" />
        <dc:title></dc:title>
      </cc:Work>
    </rdf:RDF>
  </metadata>
  <defs
     id="defs3051">
    <style
       id="current-color-scheme"
       type="text/css">
      .ColorScheme-Text {
        color:#31363b;
      }
      </style>
  </defs>
  <g
     id="tools-report-bug"
     transform="translate(11,2)">
    <path
       inkscape:connector-curvature="0"
       id="path2-5-5"
       style="clip-rule:evenodd;fill:#ffffff;fill-rule:evenodd;stroke-linejoin:round;stroke-miterlimit:1.41420996"
       d="M 14,25 V 3 H 40 V 25 Z M 39,8 H 15 V 24 H 39 Z M 15,4 V 7 H 39 V 4 Z M 38,6 H 36 V 5 h 2 z M 35,6 H 33 V 5 h 2 z M 32,6 H 30 V 5 h 2 z"
       sodipodi:nodetypes="cccccccccccccccccccccccccccccc" />
    <rect
       y="-2"
       x="11"
       height="32"
       width="32"
       id="rect817-7-6"
       style="clip-rule:evenodd;fill:#ffffff;fill-opacity:0;fill-rule:evenodd;stroke-width:1.0068109;stroke-linejoin:round;stroke-miterlimit:1.41420996" />
    <path
       inkscape:connector-curvature="0"
       id="rect864"
       d="m 22.404297,10.697266 -0.707031,0.707037 4.595703,4.595716 -4.595703,4.595678 0.707031,0.707037 L 27,16.707054 l 4.595703,4.59568 0.707031,-0.707037 -4.595703,-4.595678 4.595703,-4.595716 L 31.595703,10.697266 27,15.292983 Z"
       style="opacity:1;fill:#ffffff;fill-opacity:1;stroke:none;stroke-width:3.3844564;stroke-miterlimit:4;stroke-dasharray:none;stroke-opacity:1" />
  </g>
  <g
     id="22-22-tools-report-bug"
     transform="translate(0,10)">
    <path
       inkscape:connector-curvature="0"
       id="path2-6-9"
       d="M 2,2 V 4 5 20 H 20 V 5 4 2 Z M 3,3 H 19 V 4 H 3 Z M 3,5 H 19 V 19 H 3 Z M 6.7578125,7.0507812 6.0507812,7.7578125 10.292969,12 6.0507812,16.242188 6.7578125,16.949219 11,12.707031 15.242188,16.949219 15.949219,16.242188 11.707031,12 15.949219,7.7578125 15.242188,7.0507812 11,11.292969 Z"
       style="clip-rule:evenodd;fill:#ffffff;fill-rule:evenodd;stroke-linejoin:round;stroke-miterlimit:1.41420996" />
    <rect
       y="0"
       x="0"
       height="22"
       width="22"
       id="rect817-75-6"
       style="clip-rule:evenodd;fill:#ffffff;fill-opacity:0;fill-rule:evenodd;stroke-width:0.99173671;stroke-linejoin:round;stroke-miterlimit:1.41420996" />
  </g>
</svg>
