<?xml version="1.0" encoding="UTF-8" standalone="no"?>
<svg
   xmlns:dc="http://purl.org/dc/elements/1.1/"
   xmlns:cc="http://creativecommons.org/ns#"
   xmlns:rdf="http://www.w3.org/1999/02/22-rdf-syntax-ns#"
   xmlns:svg="http://www.w3.org/2000/svg"
   xmlns="http://www.w3.org/2000/svg"
   xmlns:sodipodi="http://sodipodi.sourceforge.net/DTD/sodipodi-0.dtd"
   xmlns:inkscape="http://www.inkscape.org/namespaces/inkscape"
   id="svg2"
   width="70"
   height="64.000015"
   version="1.0"
   sodipodi:docname="computer.svg"
   inkscape:version="0.92.4 (5da689c313, 2019-01-14)">
  <sodipodi:namedview
     pagecolor="#ffffff"
     bordercolor="#666666"
     borderopacity="1"
     objecttolerance="10"
     gridtolerance="10"
     guidetolerance="10"
     inkscape:pageopacity="0"
     inkscape:pageshadow="2"
     inkscape:window-width="1920"
     inkscape:window-height="1011"
     id="namedview24"
     showgrid="true"
     inkscape:zoom="2"
     inkscape:cx="-33.87207"
     inkscape:cy="-3.9025838"
     inkscape:window-x="0"
     inkscape:window-y="0"
     inkscape:window-maximized="1"
     inkscape:current-layer="svg2"
     showguides="true"
     inkscape:guide-bbox="true"
     inkscape:measure-start="26,19"
     inkscape:measure-end="26,9"
     fit-margin-top="0"
     fit-margin-left="0"
     fit-margin-right="0"
     fit-margin-bottom="0"
     inkscape:pagecheckerboard="true" />
  <metadata
     id="metadata7">
    <rdf:RDF>
      <cc:Work
         rdf:about="">
        <dc:format>image/svg+xml</dc:format>
        <dc:type
           rdf:resource="http://purl.org/dc/dcmitype/StillImage" />
        <dc:title />
      </cc:Work>
    </rdf:RDF>
  </metadata>
  <defs
     id="defs5">
    <style
       id="current-color-scheme"
       type="text/css">
      .ColorScheme-Text {
        color:#31363b;
      }
      .ColorScheme-Background{
        color:#E9E8E8;
      }
      .ColorScheme-ViewText {
        color:#000000;
      }
      .ColorScheme-ViewBackground{
        color:#ffffff;
      }
      .ColorScheme-ViewHover {
        color:#000000;
      }
      .ColorScheme-ViewFocus{
        color:#5a5a5a;
      }
      .ColorScheme-ButtonText {
        color:#000000;
      }
      .ColorScheme-ButtonBackground{
        color:#E9E8E8;
      }
      .ColorScheme-ButtonHover {
        color:#1489ff;
      }
      .ColorScheme-ButtonFocus{
        color:#2B74C7;
      }
</style>
  </defs>
  <g
     style="clip-rule:evenodd;fill-rule:evenodd;stroke-linejoin:round;stroke-miterlimit:1.41420996"
     id="computer-laptop"
     transform="translate(38)">
    <path
       inkscape:connector-curvature="0"
       id="path2-7"
       style="fill:#ffffff"
       d="M 26,27 H 6 C 4.344,27 3,25.656 3,24 V 23 H 7 C 5.896,23 5,22.104 5,21 V 7 C 5,5.896 5.896,5 7,5 h 18 c 1.104,0 2,0.896 2,2 v 14 c 0,1.104 -0.896,2 -2,2 h 4 v 1 0.019 C 28.989,25.666 27.649,27 26,27 Z m -7,-3 v 1 H 13 V 24 H 4 v 0.006 C 4.004,25.107 4.898,26 6,26 h 20 c 1.104,0 2,-0.896 2,-2 z m 7,-3 H 6 v 0.006 C 6.004,21.555 6.45,22 7,22 h 18 c 0.552,0 1,-0.448 1,-1 z M 25,6 H 7 C 6.448,6 6,6.448 6,7 V 20 H 26 V 7 C 26,6.448 25.552,6 25,6 Z" />
    <rect
       y="0"
       x="0"
       height="32"
       width="32"
       id="rect817-6"
       style="fill:#ffffff;fill-opacity:0" />
  </g>
  <g
     style="clip-rule:evenodd;fill-rule:evenodd;stroke-linejoin:round;stroke-miterlimit:1.41420996"
     id="22-22-computer-laptop"
     transform="translate(16,6.999977)">
    <path
       inkscape:connector-curvature="0"
       id="path2-1"
       style="fill:#ffffff"
       d="M 2,16 H 5 C 3.896,16 3,15.104 3,14 V 4 C 3,2.896 3.896,2 5,2 h 12 c 1.104,0 2,0.896 2,2 v 10 c 0,1.104 -0.896,2 -2,2 h 3 v 1 0.019 C 19.989,18.666 18.649,20 17,20 H 5 C 3.344,20 2,18.656 2,17 Z m 7,1 H 3 c 0,1.104 0.896,2 2,2 h 12 c 1.104,0 2,-0.896 2,-2 h -6 v 1 H 9 Z m 9,-3 H 4 c 0,0.552 0.448,1 1,1 h 12 c 0.552,0 1,-0.448 1,-1 z M 17,3 H 5 C 4.448,3 4,3.448 4,4 v 9 H 18 V 4 C 18,3.448 17.552,3 17,3 Z" />
    <rect
       y="0"
       x="0"
       height="22"
       width="22"
       id="rect817-2"
       style="fill:#ffffff;fill-opacity:0;stroke-width:0.99794161" />
  </g>
  <g
     style="clip-rule:evenodd;fill-rule:evenodd;stroke-linejoin:round;stroke-miterlimit:1.41420996"
     id="16-16-computer-laptop"
     transform="translate(0,12.999977)">
    <path
       inkscape:connector-curvature="0"
       id="path2-16"
       style="fill:#ffffff"
       d="M 3,12 C 2.448,12 2,11.552 2,11 V 3 C 2,2.448 2.448,2 3,2 h 10 c 0.552,0 1,0.448 1,1 v 8 c 0,0.552 -0.448,1 -1,1 h 2 c 0,1.104 -0.896,2 -2,2 H 3 C 1.896,14 1,13.104 1,12 Z m 7,0 H 6 v 1 h 4 z M 13,3 H 3 v 8 h 10 z" />
    <rect
       y="0"
       x="0"
       height="16"
       width="16"
       id="rect817-1"
       style="fill:#ffffff;fill-opacity:0;stroke-width:0.9977811" />
  </g>
  <g
     id="22-22-computer"
     transform="matrix(3.7795275,0,0,3.7795275,16,-1058.5195)">
    <path
       transform="matrix(0.26458333,0,0,0.26458333,0,291.17915)"
       id="rect835"
       d="M 2,2 V 20 H 8 V 2 Z M 9,2 V 3 H 19 V 13 H 9 v 1 h 10 v 2 H 9 v 1 h 3 v 2 H 9 v 1 h 6 v -1 h -2 v -2 h 7 V 16 3 2 H 19 Z M 3,3 H 7 V 19 H 3 Z m 2.9999995,13 h -2 v 2 h 2 z"
       style="fill:#ffffff;fill-opacity:1;stroke:none;stroke-width:0.99999994;stroke-linecap:round;stroke-linejoin:miter;stroke-miterlimit:4;stroke-dasharray:none;stroke-dashoffset:0;stroke-opacity:1"
       inkscape:connector-curvature="0"
       sodipodi:nodetypes="ccccccccccccccccccccccccccccccccccccccc" />
    <rect
       y="291.17914"
       x="0"
       height="5.8208332"
       width="5.8208332"
       id="rect864"
       style="fill:#00ff00;fill-opacity:0;stroke:none;stroke-width:0.26458332;stroke-linecap:round;stroke-linejoin:miter;stroke-miterlimit:4;stroke-dasharray:none;stroke-dashoffset:0;stroke-opacity:1" />
  </g>
  <g
     id="computer"
     transform="matrix(3.7795275,0,0,3.7795275,38.000001,-1058.5196)">
    <path
       inkscape:connector-curvature="0"
       id="rect825-23"
       d="m 0.79375006,289.32707 v 6.87917 H 3.4395834 v -6.87917 z m 2.91041664,0 v 0.26458 h 3.7041666 v 4.49792 H 3.7041667 v 0.26458 h 3.7041666 v 0.52917 H 5.0270833 4.7625 3.7041667 v 0.26458 H 4.7625 v 0.79375 H 3.7041667 v 0.26459 H 4.7625 h 0.2645833 0.79375 v -0.26459 h -0.79375 v -0.79375 h 2.6458333 v -0.79375 -0.26458 -4.23333 -0.26459 -0.26458 z m -2.6458333,0.26458 H 3.175 v 6.35 H 1.0583334 Z M 1.5875,294.61874 v 0.79375 h 1.0583334 v -0.79375 z m 0.2645834,0.26458 H 2.38125 v 0.26458 H 1.8520834 Z"
       style="opacity:1;fill:#ffffff;fill-opacity:1;fill-rule:evenodd;stroke-width:0.26499999;stroke-miterlimit:4;stroke-dasharray:none" />
    <rect
       y="288.53333"
       x="2.3919065e-07"
       height="8.4666662"
       width="8.4666662"
       id="rect900"
       style="fill:#00ff00;fill-opacity:0;stroke:none;stroke-width:0.26458332;stroke-linecap:round;stroke-linejoin:miter;stroke-miterlimit:4;stroke-dasharray:none;stroke-dashoffset:0;stroke-opacity:1" />
  </g>
  <g
     id="16-16-computer"
     transform="matrix(3.7795275,0,0,3.7795275,0,-1058.5195)">
    <path
       id="rect933"
       transform="matrix(0.26458333,0,0,0.26458333,0,292.76665)"
       d="M 1,1 V 15 H 6 V 1 Z m 6,0 v 1 h 7 v 8 H 7 v 1 h 7 v 1 H 7 v 1 h 2 v 1 H 7 v 1 h 4 v -1 h -1 v -1 h 5 V 12 2 1 H 14 Z M 2,2 H 5 V 14 H 2 Z m 1,9 v 2 h 1 v -2 z"
       style="fill:#ffffff;fill-opacity:1;stroke:none;stroke-width:0.99999994;stroke-linecap:round;stroke-linejoin:miter;stroke-miterlimit:4;stroke-dasharray:none;stroke-dashoffset:0;stroke-opacity:1"
       inkscape:connector-curvature="0" />
    <rect
       y="292.76663"
       x="-3.6311283e-16"
       height="4.2333331"
       width="4.2333331"
       id="rect954"
       style="fill:#00ffff;fill-opacity:0;stroke:none;stroke-width:0.26458332;stroke-linecap:round;stroke-linejoin:miter;stroke-miterlimit:4;stroke-dasharray:none;stroke-dashoffset:0;stroke-opacity:1" />
  </g>
</svg>
