<?xml version="1.0" encoding="UTF-8" standalone="no"?>
<!-- Created with Inkscape (http://www.inkscape.org/) -->

<svg
   xmlns:dc="http://purl.org/dc/elements/1.1/"
   xmlns:cc="http://creativecommons.org/ns#"
   xmlns:rdf="http://www.w3.org/1999/02/22-rdf-syntax-ns#"
   xmlns:svg="http://www.w3.org/2000/svg"
   xmlns="http://www.w3.org/2000/svg"
   xmlns:sodipodi="http://sodipodi.sourceforge.net/DTD/sodipodi-0.dtd"
   xmlns:inkscape="http://www.inkscape.org/namespaces/inkscape"
   width="32"
   height="32"
   id="svg3869"
   version="1.1"
   inkscape:version="0.92.2 2405546, 2018-03-11"
   sodipodi:docname="kdeconnect.svg"
   viewBox="0 0 32 32">
  <defs
     id="defs3871">
    <style
       type="text/css"
       id="current-color-scheme">
      .ColorScheme-Text {
        color:#31363b;
      }
      .ColorScheme-Background {
        color:#eff0f1;
      }
      .ColorScheme-Highlight {
        color:#3daee9;
      }
      .ColorScheme-ViewText {
        color:#31363b;
      }
      .ColorScheme-ViewBackground {
        color:#fcfcfc;
      }
      .ColorScheme-ViewHover {
        color:#93cee9;
      }
      .ColorScheme-ViewFocus{
        color:#3daee9;
      }
      .ColorScheme-ButtonText {
        color:#31363b;
      }
      .ColorScheme-ButtonBackground {
        color:#eff0f1;
      }
      .ColorScheme-ButtonHover {
        color:#93cee9;
      }
      .ColorScheme-ButtonFocus{
        color:#3daee9;
      }
      </style>
  </defs>
  <sodipodi:namedview
     id="base"
     pagecolor="#ffffff"
     bordercolor="#666666"
     borderopacity="1.0"
     inkscape:pageopacity="0.0"
     inkscape:pageshadow="2"
     inkscape:zoom="11.313708"
     inkscape:cx="-20.125375"
     inkscape:cy="16.579282"
     inkscape:document-units="px"
     inkscape:current-layer="layer1"
     showgrid="true"
     fit-margin-top="0"
     fit-margin-left="0"
     fit-margin-right="0"
     fit-margin-bottom="0"
     inkscape:window-width="1872"
     inkscape:window-height="1021"
     inkscape:window-x="48"
     inkscape:window-y="32"
     inkscape:window-maximized="1"
     inkscape:showpageshadow="false"
     inkscape:measure-start="-11,15"
     inkscape:measure-end="-11,0.999983"
     inkscape:pagecheckerboard="true"
     showguides="true"
     inkscape:guide-bbox="true"
     inkscape:snap-bbox="true"
     inkscape:bbox-nodes="true">
    <inkscape:grid
       type="xygrid"
       id="grid4132"
       originx="5"
       originy="4.9999852" />
    <sodipodi:guide
       position="19,28.999986"
       orientation="0,1"
       id="guide824"
       inkscape:locked="false" />
    <sodipodi:guide
       position="19,2.9999852"
       orientation="0,1"
       id="guide826"
       inkscape:locked="false" />
    <sodipodi:guide
       position="29,9.9999852"
       orientation="1,0"
       id="guide828"
       inkscape:locked="false" />
    <sodipodi:guide
       position="3,13.999986"
       orientation="1,0"
       id="guide830"
       inkscape:locked="false" />
    <sodipodi:guide
       position="-5,24.999986"
       orientation="0,1"
       id="guide857"
       inkscape:locked="false" />
    <sodipodi:guide
       position="-6,6.9999852"
       orientation="0,1"
       id="guide859"
       inkscape:locked="false" />
    <sodipodi:guide
       position="-2,15.999986"
       orientation="1,0"
       id="guide861"
       inkscape:locked="false" />
    <sodipodi:guide
       position="-20,14.999985"
       orientation="1,0"
       id="guide863"
       inkscape:locked="false" />
    <sodipodi:guide
       position="-33,22.999986"
       orientation="0,1"
       id="guide883"
       inkscape:locked="false" />
    <sodipodi:guide
       position="-33,8.9999852"
       orientation="0,1"
       id="guide885"
       inkscape:locked="false" />
    <sodipodi:guide
       position="-37,17.999985"
       orientation="1,0"
       id="guide887"
       inkscape:locked="false" />
    <sodipodi:guide
       position="-23,16.999985"
       orientation="1,0"
       id="guide889"
       inkscape:locked="false" />
  </sodipodi:namedview>
  <metadata
     id="metadata3874">
    <rdf:RDF>
      <cc:Work
         rdf:about="">
        <dc:format>image/svg+xml</dc:format>
        <dc:type
           rdf:resource="http://purl.org/dc/dcmitype/StillImage" />
        <dc:title></dc:title>
      </cc:Work>
    </rdf:RDF>
  </metadata>
  <g
     inkscape:label="Capa 1"
     inkscape:groupmode="layer"
     id="layer1"
     transform="translate(-321,-529.36218)">
    <g
       id="kdeconnect">
      <path
         id="rect832"
         transform="translate(321,529.36218)"
         d="M 10,3 C 8.8919918,3 8,3.8919918 8,5 v 19 1 2 c 0,1.108008 0.8919918,2 2,2 h 12 c 1.108008,0 2,-0.891992 2,-2 V 25 24 5 C 24,3.8919918 23.108008,3 22,3 Z m 0,1 h 12 c 0.554008,0 1,0.4459918 1,1 V 24 H 9 V 5 C 9,4.4459918 9.4459918,4 10,4 Z m 3,1 v 1 h 6 V 5 Z M 9,25 h 14 v 2 c 0,0.554008 -0.445992,1 -1,1 H 10 C 9.4459918,28 9,27.554008 9,27 Z m 5,1 v 1 h 4 v -1 z"
         style="fill:#ffffff;fill-opacity:1;stroke-width:0.97014242"
         inkscape:connector-curvature="0" />
      <rect
         y="529.36218"
         x="321"
         height="32"
         width="32"
         id="rect850"
         style="fill:#00ff00;fill-opacity:0" />
    </g>
    <g
       id="22-22-kdeconnect">
      <path
         id="rect865"
         transform="translate(299,534.36218)"
         d="M 7,2 C 5.8919918,2 5,2.8919918 5,4 v 11 1 2 c 0,1.108008 0.8919918,2 2,2 h 8 c 1.108008,0 2,-0.891992 2,-2 V 16 15 4 C 17,2.8919918 16.108008,2 15,2 Z m 0,1 h 8 c 0.554008,0 1,0.4459918 1,1 V 15 H 6 V 4 C 6,3.4459918 6.4459918,3 7,3 Z m 1,1 v 1 h 6 V 4 Z M 6,16 h 10 v 2 c 0,0.554008 -0.445992,1 -1,1 H 7 C 6.4459918,19 6,18.554008 6,18 Z m 3,1 v 1 h 4 v -1 z"
         style="fill:#ffffff;fill-opacity:1;stroke-width:0.92582011"
         inkscape:connector-curvature="0" />
      <rect
         y="534.36218"
         x="299"
         height="22"
         width="22"
         id="rect877"
         style="fill:#008000;fill-opacity:0" />
    </g>
    <g
       id="16-16-kdeconnect">
      <path
         sodipodi:nodetypes="sssssssssccccccccccccccc"
         inkscape:connector-curvature="0"
         id="rect891"
         transform="translate(283,537.36218)"
         d="M 4,1 C 3.4459918,1 3,1.4459918 3,2 v 12 c 0,0.554008 0.4459918,1 1,1 h 8 c 0.554008,0 1,-0.445992 1,-1 V 2 C 13,1.4459918 12.554008,1 12,1 Z m 0,1 h 8 V 12 H 4 Z m 2,1 v 1 h 4 V 3 Z m 1,10.000017 h 2 v 1 H 7 Z"
         style="fill:#ffffff;fill-opacity:1;stroke-width:0.9534626" />
      <rect
         y="537.36218"
         x="283"
         height="16"
         width="16"
         id="rect906"
         style="fill:#ffff00;fill-opacity:0" />
    </g>
  </g>
</svg>
