<?xml version="1.0" encoding="UTF-8" standalone="no"?>
<!-- Created with Inkscape (http://www.inkscape.org/) -->

<svg
   xmlns:dc="http://purl.org/dc/elements/1.1/"
   xmlns:cc="http://creativecommons.org/ns#"
   xmlns:rdf="http://www.w3.org/1999/02/22-rdf-syntax-ns#"
   xmlns:svg="http://www.w3.org/2000/svg"
   xmlns="http://www.w3.org/2000/svg"
   xmlns:sodipodi="http://sodipodi.sourceforge.net/DTD/sodipodi-0.dtd"
   xmlns:inkscape="http://www.inkscape.org/namespaces/inkscape"
   width="32"
   height="32"
   id="svg3869"
   version="1.1"
   inkscape:version="0.92.4 (5da689c313, 2019-01-14)"
   sodipodi:docname="kget.svg"
   viewBox="0 0 32 32">
  <defs
     id="defs3871">
    <style
       type="text/css"
       id="current-color-scheme">
      .ColorScheme-Text {
        color:#31363b;
      }
      .ColorScheme-Background {
        color:#eff0f1;
      }
      .ColorScheme-Highlight {
        color:#3daee9;
      }
      .ColorScheme-ViewText {
        color:#31363b;
      }
      .ColorScheme-ViewBackground {
        color:#fcfcfc;
      }
      .ColorScheme-ViewHover {
        color:#93cee9;
      }
      .ColorScheme-ViewFocus{
        color:#3daee9;
      }
      .ColorScheme-ButtonText {
        color:#31363b;
      }
      .ColorScheme-ButtonBackground {
        color:#eff0f1;
      }
      .ColorScheme-ButtonHover {
        color:#93cee9;
      }
      .ColorScheme-ButtonFocus{
        color:#3daee9;
      }
      </style>
  </defs>
  <sodipodi:namedview
     id="base"
     pagecolor="#ffffff"
     bordercolor="#666666"
     borderopacity="1.0"
     inkscape:pageopacity="0.0"
     inkscape:pageshadow="2"
     inkscape:zoom="1"
     inkscape:cx="-396.96522"
     inkscape:cy="136.79467"
     inkscape:document-units="px"
     inkscape:current-layer="layer1"
     showgrid="true"
     fit-margin-top="0"
     fit-margin-left="0"
     fit-margin-right="0"
     fit-margin-bottom="0"
     inkscape:window-width="1920"
     inkscape:window-height="1011"
     inkscape:window-x="0"
     inkscape:window-y="0"
     inkscape:window-maximized="1"
     inkscape:showpageshadow="false"
     viewbox-height="32"
     borderlayer="true"
     inkscape:pagecheckerboard="true">
    <inkscape:grid
       type="xygrid"
       id="grid4132"
       originx="-37.92969"
       originy="5.2171881e-06" />
  </sodipodi:namedview>
  <metadata
     id="metadata3874">
    <rdf:RDF>
      <cc:Work
         rdf:about="">
        <dc:format>image/svg+xml</dc:format>
        <dc:type
           rdf:resource="http://purl.org/dc/dcmitype/StillImage" />
        <dc:title></dc:title>
      </cc:Work>
    </rdf:RDF>
  </metadata>
  <g
     inkscape:label="Capa 1"
     inkscape:groupmode="layer"
     id="layer1"
     transform="translate(-363.92969,-524.3622)">
    <g
       style="clip-rule:evenodd;fill-rule:evenodd;stroke-linejoin:round;stroke-miterlimit:1.41420996"
       id="22-22-kget"
       transform="translate(342,534.36219)">
      <path
         inkscape:connector-curvature="0"
         id="path2"
         d="M 9,2 V 3 8 H 6.2011719 4.7871094 L 10.929688,14.142578 17.070312,8 H 16 13 V 2 Z m 1,1 h 2 v 6 h 1 1.65625 L 10.929688,12.728516 7.2011719,9 H 9 10 Z M 2,13 v 7 h 18 v -7 h -4 v 3 H 6 v -3 z m 1,1 h 2 v 3 H 17.015625 L 17,14 h 2 v 5 H 3 Z"
         style="fill:#ffffff" />
      <rect
         y="0"
         x="0"
         height="22"
         width="22"
         id="rect830"
         style="fill:#ffffff;fill-opacity:0;stroke-width:0.94050783" />
    </g>
    <g
       style="clip-rule:evenodd;fill-rule:evenodd;stroke-linejoin:round;stroke-miterlimit:1.41420996"
       id="kget"
       transform="translate(363.92969,524.3622)">
      <path
         inkscape:connector-curvature="0"
         id="path2-0"
         style="fill:#ffffff"
         d="m 19,13 h 4 l -7,7 -7,-7 h 4 V 4 h 6 z M 18,5 h -4 v 9 H 11.414 L 16,18.586 20.586,14 H 18 Z" />
      <path
         inkscape:connector-curvature="0"
         id="path4"
         style="fill:#ffffff"
         d="M 29,28 H 3 V 17 h 5 v 5 h 16 v -5 h 5 z M 28,18 h -3 v 5 H 7 V 18 H 4 v 9 h 24 z" />
      <rect
         y="0"
         x="0"
         height="32"
         width="32"
         id="rect822"
         style="fill:#ffffff;fill-opacity:0;stroke-width:0.97570658" />
    </g>
    <g
       id="16-16-kget">
      <g
         id="g852">
        <path
           inkscape:connector-curvature="0"
           style="opacity:1;fill:#ffffff;fill-opacity:1;stroke-linecap:square"
           d="m 332.00002,541.36219 v 1 2.99997 h -1.48438 -0.51562 -0.89844 l -0.0508,0.0508 0.94922,0.94922 4,4 4,-4 0.94922,-0.94922 -0.0508,-0.0508 h -0.8984 -0.51563 -1.48437 v -3.99997 z m 1,1 h 2 v 2.99997 1 h 1.58594 l -2.58594,2.58594 -2.58594,-2.58594 h 1.58594 v -1 z"
           id="path859"
           sodipodi:nodetypes="ccccccccccccccccccccccccccc" />
        <path
           style="opacity:1;fill:#ffffff;fill-opacity:1;stroke-linecap:square"
           d="m 327,549.36219 v 1 4 1 h 1 12 1 v -1 -5 h -2 -1 v 1 1 h -8 v -2 z m 1,1 h 1 v 2 h 1 9 v -1 -1 h 1 v 4 h -12 z"
           id="rect833"
           inkscape:connector-curvature="0" />
      </g>
      <rect
         y="540.36218"
         x="326"
         height="16"
         width="16"
         id="rect854"
         style="opacity:1;fill:#00ffff;fill-opacity:0;stroke-linecap:square" />
    </g>
  </g>
</svg>
