<?xml version="1.0" encoding="UTF-8" standalone="no"?>
<!-- Created with Inkscape (http://www.inkscape.org/) -->

<svg
   xmlns:dc="http://purl.org/dc/elements/1.1/"
   xmlns:cc="http://creativecommons.org/ns#"
   xmlns:rdf="http://www.w3.org/1999/02/22-rdf-syntax-ns#"
   xmlns:svg="http://www.w3.org/2000/svg"
   xmlns="http://www.w3.org/2000/svg"
   xmlns:sodipodi="http://sodipodi.sourceforge.net/DTD/sodipodi-0.dtd"
   xmlns:inkscape="http://www.inkscape.org/namespaces/inkscape"
   id="svg4153"
   version="1.1"
   inkscape:version="0.92.3 (2405546, 2018-03-11)"
   width="32.000004"
   height="32"
   sodipodi:docname="klipper.svg"
   viewBox="0 0 32.000004 32">
  <metadata
     id="metadata4159">
    <rdf:RDF>
      <cc:Work
         rdf:about="">
        <dc:format>image/svg+xml</dc:format>
        <dc:type
           rdf:resource="http://purl.org/dc/dcmitype/StillImage" />
        <dc:title></dc:title>
      </cc:Work>
    </rdf:RDF>
  </metadata>
  <defs
     id="defs4157">
    <style
       type="text/css"
       id="current-color-scheme">
      .ColorScheme-Text {
        color:#31363b;
      }
      .ColorScheme-Background {
        color:#eff0f1;
      }
      .ColorScheme-Highlight {
        color:#3daee9;
      }
      .ColorScheme-ViewText {
        color:#31363b;
      }
      .ColorScheme-ViewBackground {
        color:#fcfcfc;
      }
      .ColorScheme-ViewHover {
        color:#93cee9;
      }
      .ColorScheme-ViewFocus{
        color:#3daee9;
      }
      .ColorScheme-ButtonText {
        color:#31363b;
      }
      .ColorScheme-ButtonBackground {
        color:#eff0f1;
      }
      .ColorScheme-ButtonHover {
        color:#93cee9;
      }
      .ColorScheme-ButtonFocus{
        color:#3daee9;
      }
      </style>
  </defs>
  <sodipodi:namedview
     pagecolor="#0a0a0a"
     bordercolor="#666666"
     borderopacity="1"
     objecttolerance="10"
     gridtolerance="10000"
     guidetolerance="10"
     inkscape:pageopacity="0"
     inkscape:pageshadow="2"
     inkscape:window-width="1920"
     inkscape:window-height="1017"
     id="namedview4155"
     inkscape:document-units="px"
     showgrid="true"
     inkscape:showpageshadow="false"
     borderlayer="true"
     inkscape:zoom="1"
     inkscape:cx="-43.700797"
     inkscape:cy="130.64056"
     inkscape:window-x="-8"
     inkscape:window-y="-8"
     inkscape:window-maximized="1"
     inkscape:current-layer="svg4153"
     fit-margin-top="0"
     fit-margin-left="0"
     fit-margin-right="0"
     fit-margin-bottom="0"
     inkscape:pagecheckerboard="false"
     inkscape:measure-start="-26,12"
     inkscape:measure-end="-26,1" />
  <inkscape:clipboard
     style="opacity:0.01000001;fill:#00000f;fill-opacity:0;stroke-width:1;stroke-linecap:butt;stroke-linejoin:miter;stroke-miterlimit:4;stroke-dasharray:none;stroke-dashoffset:0;stroke-opacity:1;stroke:none"
     min="0,0"
     max="22,22" />
  <g
     style="clip-rule:evenodd;fill-rule:evenodd;stroke-linejoin:round;stroke-miterlimit:2"
     id="22-22-klipper"
     transform="translate(-22,10)">
    <path
       inkscape:connector-curvature="0"
       style="fill:#ffffff"
       id="path2-9"
       d="M 2,20 V 5 H 15 V 20 Z M 14,6 H 3 v 13 h 11 z m 2,11 v -1 h 3 V 3 H 8 V 4 H 7 V 2 H 20 V 17 Z M 4,15 h 6 v 1 H 4 Z m 0,-3 h 9 v 1 H 4 Z M 4,9 h 9 v 1 H 4 Z"
       sodipodi:nodetypes="cccccccccccccccccccccccccccccccccccc" />
    <rect
       y="0"
       x="0"
       height="22"
       width="22"
       id="rect819"
       style="fill:#ff00ff;fill-opacity:0;stroke-width:6;stroke-miterlimit:4;stroke-dasharray:none" />
  </g>
  <g
     style="clip-rule:evenodd;fill-rule:evenodd;stroke-linejoin:round;stroke-miterlimit:2"
     id="klipper"
     transform="translate(1.9073486e-6)">
    <path
       inkscape:connector-curvature="0"
       id="path2-69"
       d="M 21,29 H 3 V 7 H 21 Z M 20,8 H 4 v 20 h 16 z m -6,17 h 5 v 1 h -5 z m 15,0 h -7 v -1 h 6 V 4 H 12 V 6 H 11 V 3 H 29 Z M 5,22 h 8 v 1 H 5 Z m 0,-3 h 11 v 1 H 5 Z m 0,-3 h 14 v 1 H 5 Z m 0,-3 h 14 v 1 H 5 Z m 0,-3 h 14 v 1 H 5 Z"
       style="fill:#ffffff" />
    <rect
       y="0"
       x="0"
       height="32"
       width="32"
       id="rect817-0"
       style="fill:#00ffff;fill-opacity:0;stroke-width:6.11476278;stroke-miterlimit:4;stroke-dasharray:none" />
  </g>
  <g
     style="clip-rule:evenodd;fill-rule:evenodd;stroke-linejoin:round;stroke-miterlimit:2"
     id="16-16-klipper"
     transform="translate(-38,16)">
    <path
       id="path2-8"
       d="M 11,15 H 1 l 1e-7,-11 H 11 Z M 10,5 H 2.0000001 L 2,14 h 7.9999999 z m 2,7 v -1 h 2 V 2 H 6 V 3 H 5 l -2e-7,-2 H 15 V 12 Z M 3.0000001,11 H 9 v 1 H 3.0000001 Z M 3,7 H 8.9999999 V 8 H 3 Z"
       inkscape:connector-curvature="0"
       style="fill:#ffffff"
       sodipodi:nodetypes="ccccccccccccccccccccccccccccccc" />
    <rect
       y="0"
       x="0"
       height="16"
       width="16"
       id="rect836"
       style="fill:#000080;fill-opacity:0;stroke-width:4.23568773;stroke-miterlimit:4;stroke-dasharray:none" />
  </g>
</svg>
