<?xml version="1.0" encoding="UTF-8" standalone="no"?>
<svg
   xmlns:serif="http://www.serif.com/"
   xmlns:dc="http://purl.org/dc/elements/1.1/"
   xmlns:cc="http://creativecommons.org/ns#"
   xmlns:rdf="http://www.w3.org/1999/02/22-rdf-syntax-ns#"
   xmlns:svg="http://www.w3.org/2000/svg"
   xmlns="http://www.w3.org/2000/svg"
   xmlns:sodipodi="http://sodipodi.sourceforge.net/DTD/sodipodi-0.dtd"
   xmlns:inkscape="http://www.inkscape.org/namespaces/inkscape"
   id="svg4153"
   version="1.1"
   width="32"
   height="32"
   viewBox="0 0 32 32"
   sodipodi:docname="ktorrent.svg"
   inkscape:version="0.92.4 (5da689c313, 2019-01-14)">
  <sodipodi:namedview
     pagecolor="#ffffff"
     bordercolor="#666666"
     borderopacity="1"
     objecttolerance="10"
     gridtolerance="10"
     guidetolerance="10"
     inkscape:pageopacity="0"
     inkscape:pageshadow="2"
     inkscape:window-width="1920"
     inkscape:window-height="1011"
     id="namedview9"
     showgrid="true"
     inkscape:zoom="1"
     inkscape:cx="0.82687254"
     inkscape:cy="276.54887"
     inkscape:window-x="0"
     inkscape:window-y="0"
     inkscape:window-maximized="1"
     inkscape:current-layer="svg4153"
     inkscape:snap-bbox="true"
     inkscape:bbox-nodes="true"
     fit-margin-top="0"
     fit-margin-left="0"
     fit-margin-right="0"
     fit-margin-bottom="0"
     inkscape:pagecheckerboard="true">
    <inkscape:grid
       type="xygrid"
       id="grid822"
       visible="true"
       originx="-38"
       originy="0" />
  </sodipodi:namedview>
  <metadata
     id="metadata4159">
    <rdf:RDF>
      <cc:Work
         rdf:about="">
        <dc:format>image/svg+xml</dc:format>
        <dc:type
           rdf:resource="http://purl.org/dc/dcmitype/StillImage" />
        <dc:title></dc:title>
      </cc:Work>
    </rdf:RDF>
  </metadata>
  <defs
     id="defs4157">
    <style
       type="text/css"
       id="current-color-scheme">
      .ColorScheme-Text {
        color:#31363b;
      }
      .ColorScheme-Background {
        color:#eff0f1;
      }
      .ColorScheme-Highlight {
        color:#3daee9;
      }
      .ColorScheme-ViewText {
        color:#31363b;
      }
      .ColorScheme-ViewBackground {
        color:#fcfcfc;
      }
      .ColorScheme-ViewHover {
        color:#93cee9;
      }
      .ColorScheme-ViewFocus{
        color:#3daee9;
      }
      .ColorScheme-ButtonText {
        color:#31363b;
      }
      .ColorScheme-ButtonBackground {
        color:#eff0f1;
      }
      .ColorScheme-ButtonHover {
        color:#93cee9;
      }
      .ColorScheme-ButtonFocus{
        color:#3daee9;
      }
      </style>
  </defs>
  <g
     style="clip-rule:evenodd;fill-rule:evenodd;stroke-linejoin:round;stroke-miterlimit:1.41420996"
     id="22-22-ktorrent"
     transform="translate(-22,10)">
    <path
       inkscape:connector-curvature="0"
       id="path2"
       style="fill:#ffffff"
       d="M 18,20 H 4 C 2.896,20 2,19.104 2,18 v -1 c 0,-1.104 0.896,-2 2,-2 h 14 c 1.104,0 2,0.896 2,2 v 1 c 0,1.104 -0.896,2 -2,2 z m 0,-4 H 4 c -0.552,0 -1,0.448 -1,1 v 1 c 0,0.552 0.448,1 1,1 h 14 c 0.552,0 1,-0.448 1,-1 v -1 c 0,-0.552 -0.448,-1 -1,-1 z M 13.071,8 h 4.071 L 11.001,14.143 4.858,8 H 9.071 V 2 h 4 z m -1,1 V 3 h -2 V 9 H 7.272 L 11.001,12.729 14.728,9 Z" />
    <rect
       y="0"
       x="0"
       height="22"
       width="22"
       id="rect817"
       style="fill:#ffffff;fill-opacity:0;stroke-width:0.68477458" />
  </g>
  <g
     style="clip-rule:evenodd;fill-rule:evenodd;stroke-linejoin:round;stroke-miterlimit:1.41420996"
     id="ktorrent">
    <path
       inkscape:connector-curvature="0"
       style="fill:#ffffff"
       d="m 13,22 h 4 l -7,7 -7,-7 h 4 v -9 h 6 z M 12,14 H 8 v 9 H 5.414 L 10,27.586 14.586,23 H 12 Z"
       id="path2-0" />
    <path
       inkscape:connector-curvature="0"
       style="fill:#ffffff"
       d="m 25,10 h 4 l -7,-7 -7,7 h 4 v 9 h 6 z m -1,8 H 20 V 9 H 17.414 L 22,4.414 26.586,9 H 24 Z"
       serif:id="path2-0"
       id="path2-01" />
    <rect
       y="0"
       x="0"
       height="32"
       width="32"
       id="rect817-2"
       style="fill:#ffffff;fill-opacity:0;stroke-width:1.01072752" />
  </g>
  <g
     id="16-16-ktorrent"
     transform="translate(-38,16)">
    <path
       id="rect824"
       d="m 3,11 c -1.108,0 -2,0.892 -2,2 0,1.108 0.892,2 2,2 h 10 c 1.108,0 2,-0.892 2,-2 0,-1.108 -0.892,-2 -2,-2 z m 0,1 h 10 c 0.554,0 1,0.446 1,1 0,0.554 -0.446,1 -1,1 H 3 C 2.4459999,14 2,13.554 2,13 2,12.446 2.4459999,12 3,12 Z"
       style="opacity:1;fill:#ffffff;fill-opacity:1;stroke-linecap:square"
       inkscape:connector-curvature="0" />
    <path
       id="path859"
       d="M 6,1 V 2 5 H 4.515625 4 3.1015625 L 3.0507812,5.0507812 4,6 8,10 12,6 12.949219,5.0507812 12.898438,5 H 12 11.484375 10 V 1 Z m 1,1 h 2 v 3 1 h 1.585938 L 8,8.5859375 5.4140625,6 H 7 V 5 Z"
       style="opacity:1;fill:#ffffff;fill-opacity:1;stroke-linecap:square"
       inkscape:connector-curvature="0" />
  </g>
  <rect
     style="opacity:1;fill:#00ffff;fill-opacity:0;stroke-linecap:square"
     id="rect877"
     width="16"
     height="16"
     x="-38"
     y="16" />
</svg>
