<?xml version="1.0" encoding="UTF-8" standalone="no"?>
<svg
   xmlns:dc="http://purl.org/dc/elements/1.1/"
   xmlns:cc="http://creativecommons.org/ns#"
   xmlns:rdf="http://www.w3.org/1999/02/22-rdf-syntax-ns#"
   xmlns:svg="http://www.w3.org/2000/svg"
   xmlns="http://www.w3.org/2000/svg"
   xmlns:sodipodi="http://sodipodi.sourceforge.net/DTD/sodipodi-0.dtd"
   xmlns:inkscape="http://www.inkscape.org/namespaces/inkscape"
   version="1.1"
   id="svg2"
   viewBox="0 0 32 32"
   inkscape:version="0.92.4 (5da689c313, 2019-01-14)"
   sodipodi:docname="update.svg"
   width="32"
   height="32">
  <sodipodi:namedview
     pagecolor="#ffffff"
     bordercolor="#666666"
     borderopacity="1"
     objecttolerance="10"
     gridtolerance="10"
     guidetolerance="10"
     inkscape:pageopacity="0"
     inkscape:pageshadow="2"
     inkscape:window-width="1920"
     inkscape:window-height="1009"
     id="namedview12"
     showgrid="true"
     inkscape:zoom="5.6568543"
     inkscape:cx="1.6754296"
     inkscape:cy="38.214149"
     inkscape:window-x="0"
     inkscape:window-y="0"
     inkscape:window-maximized="1"
     inkscape:current-layer="svg2"
     fit-margin-top="0"
     fit-margin-left="0"
     fit-margin-right="0"
     fit-margin-bottom="0"
     showguides="true"
     inkscape:guide-bbox="true"
     inkscape:pagecheckerboard="true">
    <inkscape:grid
       type="xygrid"
       id="grid818"
       originx="32"
       originy="-4"
       visible="true" />
  </sodipodi:namedview>
  <metadata
     id="metadata18">
    <rdf:RDF>
      <cc:Work
         rdf:about="">
        <dc:format>image/svg+xml</dc:format>
        <dc:type
           rdf:resource="http://purl.org/dc/dcmitype/StillImage" />
        <dc:title></dc:title>
      </cc:Work>
    </rdf:RDF>
  </metadata>
  <defs
     id="defs3051">
    <style
       id="current-color-scheme"
       type="text/css">
      .ColorScheme-Text {
        color:#31363b;
      }
      </style>
  </defs>
  <g
     id="22-22-update-none"
     transform="translate(32,-22)">
    <path
       id="path881"
       d="M 4.2617188,3 2,6 V 19 H 20 V 6 L 17.740234,3 H 17.25 16.486328 13.052734 12 10 8.9472656 5.5136719 4.75 Z M 4.7597656,4 H 8.6171875 L 7.9589844,6 H 3.2519531 Z m 4.9101563,0 h 2.6601561 l 0.658203,2 H 13 v 1 4 H 9 V 7 6.03125 Z m 3.7128901,0 h 3.857422 l 1.507813,2 H 14.042969 Z M 3,7 H 8 V 9.0644531 11 12 h 6 V 11 7 h 5 V 18 H 3 Z m 11,6 v 4 h 4 v -4 z m 1,1 h 2 v 2 h -2 z"
       style="opacity:1;fill:#ffffff;fill-opacity:1;stroke:none;stroke-width:1;stroke-miterlimit:4;stroke-dasharray:none;stroke-opacity:1"
       inkscape:connector-curvature="0" />
    <rect
       y="0"
       x="0"
       height="22"
       width="22"
       id="rect909"
       style="opacity:1;fill:#000000;fill-opacity:0;stroke:none;stroke-width:1;stroke-miterlimit:4;stroke-dasharray:none;stroke-opacity:1" />
  </g>
  <g
     id="22-22-update-low"
     transform="translate(54,-22)">
    <path
       inkscape:connector-curvature="0"
       id="path881-6"
       d="M 4.2617188,3 2,6 V 19 H 20 V 6 L 17.740234,3 H 17.25 16.486328 13.052734 12 10 8.9472656 5.5136719 4.75 Z M 4.7597656,4 H 8.6171875 L 7.9589844,6 H 3.2519531 Z m 4.9101563,0 h 2.6601561 l 0.658203,2 H 13 v 1 4 H 9 V 7 6.03125 Z m 3.7128901,0 h 3.857422 l 1.507813,2 H 14.042969 Z M 3,7 H 8 V 9.0644531 11 12 h 6 V 11 7 h 5 V 18 H 3 Z m 11,6 v 4 h 4 v -4 z m 1,1 h 2 v 2 h -2 z"
       style="opacity:1;fill:#1e8ff4;fill-opacity:1;stroke:none;stroke-width:1;stroke-miterlimit:4;stroke-dasharray:none;stroke-opacity:1" />
    <rect
       y="0"
       x="0"
       height="22"
       width="22"
       id="rect909-7"
       style="opacity:1;fill:#000000;fill-opacity:0;stroke:none;stroke-width:1;stroke-miterlimit:4;stroke-dasharray:none;stroke-opacity:1" />
  </g>
  <g
     id="22-22-update-medium"
     transform="translate(76,-22)">
    <path
       inkscape:connector-curvature="0"
       id="path881-6-3"
       d="M 4.2617188,3 2,6 V 19 H 20 V 6 L 17.740234,3 H 17.25 16.486328 13.052734 12 10 8.9472656 5.5136719 4.75 Z M 4.7597656,4 H 8.6171875 L 7.9589844,6 H 3.2519531 Z m 4.9101563,0 h 2.6601561 l 0.658203,2 H 13 v 1 4 H 9 V 7 6.03125 Z m 3.7128901,0 h 3.857422 l 1.507813,2 H 14.042969 Z M 3,7 H 8 V 9.0644531 11 12 h 6 V 11 7 h 5 V 18 H 3 Z m 11,6 v 4 h 4 v -4 z m 1,1 h 2 v 2 h -2 z"
       style="opacity:1;fill:#ffd502;fill-opacity:1;stroke:none;stroke-width:1;stroke-miterlimit:4;stroke-dasharray:none;stroke-opacity:1" />
    <rect
       y="0"
       x="0"
       height="22"
       width="22"
       id="rect909-7-5"
       style="opacity:1;fill:#000000;fill-opacity:0;stroke:none;stroke-width:1;stroke-miterlimit:4;stroke-dasharray:none;stroke-opacity:1" />
  </g>
  <g
     id="22-22-update-high"
     transform="translate(98,-22)">
    <path
       inkscape:connector-curvature="0"
       id="path881-6-3-2"
       d="M 4.2617188,3 2,6 V 19 H 20 V 6 L 17.740234,3 H 17.25 16.486328 13.052734 12 10 8.9472656 5.5136719 4.75 Z M 4.7597656,4 H 8.6171875 L 7.9589844,6 H 3.2519531 Z m 4.9101563,0 h 2.6601561 l 0.658203,2 H 13 v 1 4 H 9 V 7 6.03125 Z m 3.7128901,0 h 3.857422 l 1.507813,2 H 14.042969 Z M 3,7 H 8 V 9.0644531 11 12 h 6 V 11 7 h 5 V 18 H 3 Z m 11,6 v 4 h 4 v -4 z m 1,1 h 2 v 2 h -2 z"
       style="opacity:1;fill:#ff2851;fill-opacity:1;stroke:none;stroke-width:1;stroke-miterlimit:4;stroke-dasharray:none;stroke-opacity:1" />
    <rect
       y="0"
       x="0"
       height="22"
       width="22"
       id="rect909-7-5-9"
       style="opacity:1;fill:#000000;fill-opacity:0;stroke:none;stroke-width:1;stroke-miterlimit:4;stroke-dasharray:none;stroke-opacity:1" />
  </g>
  <g
     id="update-low"
     transform="translate(32)">
    <path
       sodipodi:nodetypes="ccccccccccccccccccccccccccccccccccccccccccccccccccccccccc"
       inkscape:connector-curvature="0"
       id="path973"
       d="M 7.2910156,5 6.4375,6 3.0214844,10 H 3 V 10.025391 27 H 29 V 10.025391 10 H 28.97852 L 25.5625,6 24.708984,5 H 24.476562 18.388359 17.333671 8.6074219 Z m 0.4628906,1 h 5.5237428 l -1.333985,4 H 4.3378906 Z m 6.5784298,0 h 3.33532 l 1.333984,4 h -0.002 l 3.13e-4,7 h -5.999382 l -3.13e-4,-7 h -0.002 z m 4.390007,0 h 5.523751 l 3.416015,4 H 20.056328 Z M 4,11 h 8.000305 l 3.13e-4,7 h 1 H 19 20 l -3.13e-4,-7 H 28 V 26 H 4 Z m 17,8 v 5 h 5 v -5 z m 1,1 h 3 v 3 h -3 z"
       style="opacity:1;fill:#1e8ff4;fill-opacity:1;stroke:none;stroke-width:1.02740228;stroke-miterlimit:4;stroke-dasharray:none;stroke-opacity:1" />
    <rect
       y="0"
       x="0"
       height="32"
       width="32"
       id="rect899-7"
       style="opacity:1;fill:#00ffff;fill-opacity:0;stroke:none;stroke-width:1;stroke-miterlimit:4;stroke-dasharray:none;stroke-opacity:1" />
  </g>
  <g
     id="update-medium"
     transform="translate(64)">
    <path
       sodipodi:nodetypes="ccccccccccccccccccccccccccccccccccccccccccccccccccccccccc"
       inkscape:connector-curvature="0"
       id="path973-9"
       d="M 7.2910156,5 6.4375,6 3.0214844,10 H 3 V 10.025391 27 H 29 V 10.025391 10 H 28.97852 L 25.5625,6 24.708984,5 H 24.476562 18.388359 17.333671 8.6074219 Z m 0.4628906,1 h 5.5237428 l -1.333985,4 H 4.3378906 Z m 6.5784298,0 h 3.33532 l 1.333984,4 h -0.002 l 3.13e-4,7 h -5.999382 l -3.13e-4,-7 h -0.002 z m 4.390007,0 h 5.523751 l 3.416015,4 H 20.056328 Z M 4,11 h 8.000305 l 3.13e-4,7 h 1 H 19 20 l -3.13e-4,-7 H 28 V 26 H 4 Z m 17,8 v 5 h 5 v -5 z m 1,1 h 3 v 3 h -3 z"
       style="opacity:1;fill:#ffd502;fill-opacity:1;stroke:none;stroke-width:1.02740228;stroke-miterlimit:4;stroke-dasharray:none;stroke-opacity:1" />
    <rect
       y="0"
       x="0"
       height="32"
       width="32"
       id="rect899-7-3"
       style="opacity:1;fill:#00ffff;fill-opacity:0;stroke:none;stroke-width:1;stroke-miterlimit:4;stroke-dasharray:none;stroke-opacity:1" />
  </g>
  <g
     id="update-high"
     transform="translate(96)">
    <path
       sodipodi:nodetypes="ccccccccccccccccccccccccccccccccccccccccccccccccccccccccc"
       inkscape:connector-curvature="0"
       id="path973-9-0"
       d="M 7.2910156,5 6.4375,6 3.0214844,10 H 3 V 10.025391 27 H 29 V 10.025391 10 H 28.97852 L 25.5625,6 24.708984,5 H 24.476562 18.388359 17.333671 8.6074219 Z m 0.4628906,1 h 5.5237428 l -1.333985,4 H 4.3378906 Z m 6.5784298,0 h 3.33532 l 1.333984,4 h -0.002 l 3.13e-4,7 h -5.999382 l -3.13e-4,-7 h -0.002 z m 4.390007,0 h 5.523751 l 3.416015,4 H 20.056328 Z M 4,11 h 8.000305 l 3.13e-4,7 h 1 H 19 20 l -3.13e-4,-7 H 28 V 26 H 4 Z m 17,8 v 5 h 5 v -5 z m 1,1 h 3 v 3 h -3 z"
       style="opacity:1;fill:#ff2851;fill-opacity:1;stroke:none;stroke-width:1.02740228;stroke-miterlimit:4;stroke-dasharray:none;stroke-opacity:1" />
    <rect
       y="0"
       x="0"
       height="32"
       width="32"
       id="rect899-7-3-6"
       style="opacity:1;fill:#00ffff;fill-opacity:0;stroke:none;stroke-width:1;stroke-miterlimit:4;stroke-dasharray:none;stroke-opacity:1" />
  </g>
  <g
     id="update-none">
    <path
       sodipodi:nodetypes="ccccccccccccccccccccccccccccccccccccccccccccccccccccccccc"
       inkscape:connector-curvature="0"
       id="path973-9-0-6"
       d="M 7.2910156,5 6.4375,6 3.0214844,10 H 3 V 10.025391 27 H 29 V 10.025391 10 H 28.97852 L 25.5625,6 24.708984,5 H 24.476562 18.388359 17.333671 8.6074219 Z m 0.4628906,1 h 5.5237428 l -1.333985,4 H 4.3378906 Z m 6.5784298,0 h 3.33532 l 1.333984,4 h -0.002 l 3.13e-4,7 h -5.999382 l -3.13e-4,-7 h -0.002 z m 4.390007,0 h 5.523751 l 3.416015,4 H 20.056328 Z M 4,11 h 8.000305 l 3.13e-4,7 h 1 H 19 20 l -3.13e-4,-7 H 28 V 26 H 4 Z m 17,8 v 5 h 5 v -5 z m 1,1 h 3 v 3 h -3 z"
       style="opacity:1;fill:#ffffff;fill-opacity:1;stroke:none;stroke-width:1.02740228;stroke-miterlimit:4;stroke-dasharray:none;stroke-opacity:1" />
    <rect
       y="0"
       x="0"
       height="32"
       width="32"
       id="rect899-7-3-6-1"
       style="opacity:1;fill:#00ffff;fill-opacity:0;stroke:none;stroke-width:1;stroke-miterlimit:4;stroke-dasharray:none;stroke-opacity:1" />
  </g>
</svg>
