<?xml version="1.0" encoding="UTF-8" standalone="no"?>
<svg
   xmlns:dc="http://purl.org/dc/elements/1.1/"
   xmlns:cc="http://creativecommons.org/ns#"
   xmlns:rdf="http://www.w3.org/1999/02/22-rdf-syntax-ns#"
   xmlns:svg="http://www.w3.org/2000/svg"
   xmlns="http://www.w3.org/2000/svg"
   xmlns:sodipodi="http://sodipodi.sourceforge.net/DTD/sodipodi-0.dtd"
   xmlns:inkscape="http://www.inkscape.org/namespaces/inkscape"
   version="1.1"
   id="svg2"
   viewBox="0 0 54 64"
   sodipodi:docname="view.svg"
   inkscape:version="0.92.4 (5da689c313, 2019-01-14)">
  <sodipodi:namedview
     pagecolor="#3d3d3d"
     bordercolor="#666666"
     borderopacity="1"
     objecttolerance="10"
     gridtolerance="10"
     guidetolerance="10"
     inkscape:pageopacity="0"
     inkscape:pageshadow="2"
     inkscape:window-width="1920"
     inkscape:window-height="1009"
     id="namedview18"
     showgrid="true"
     inkscape:zoom="2"
     inkscape:cx="-162.66715"
     inkscape:cy="85.008649"
     inkscape:window-x="0"
     inkscape:window-y="0"
     inkscape:window-maximized="1"
     inkscape:current-layer="svg2"
     inkscape:snap-bbox="true"
     inkscape:bbox-nodes="true">
    <inkscape:grid
       type="xygrid"
       id="grid827" />
  </sodipodi:namedview>
  <metadata
     id="metadata22">
    <rdf:RDF>
      <cc:Work
         rdf:about="">
        <dc:format>image/svg+xml</dc:format>
        <dc:type
           rdf:resource="http://purl.org/dc/dcmitype/StillImage" />
        <dc:title />
      </cc:Work>
    </rdf:RDF>
  </metadata>
  <defs
     id="defs3615">
    <style
       type="text/css"
       id="current-color-scheme">
      .ColorScheme-Text {
        color:#31363b;
      }
      .ColorScheme-Background{
        color:#E9E8E8;
      }
      .ColorScheme-ViewText {
        color:#31363b;
      }
      .ColorScheme-ViewBackground{
        color:#ffffff;
      }
      .ColorScheme-ViewHover {
        color:#000000;
      }
      .ColorScheme-ViewFocus{
        color:#5a5a5a;
      }
      .ColorScheme-ButtonText {
        color:#31363b;
      }
      .ColorScheme-ButtonBackground{
        color:#E9E8E8;
      }
      .ColorScheme-ButtonHover {
        color:#1489ff;
      }
      .ColorScheme-ButtonFocus{
        color:#2B74C7;
      }
</style>
  </defs>
  <g
     style="clip-rule:evenodd;fill-rule:evenodd;stroke-linejoin:round;stroke-miterlimit:1.41420996"
     id="22-22-view-history"
     transform="translate(0,42)">
    <path
       inkscape:connector-curvature="0"
       id="path2-3"
       style="fill:#ffffff"
       d="m 11,3 c 4.415,0 8,3.585 8,8 0,4.415 -3.585,8 -8,8 C 6.585,19 3,15.415 3,11 3,6.585 6.585,3 11,3 Z m 0,1 c 3.863,0 7,3.137 7,7 0,3.863 -3.137,7 -7,7 C 7.137,18 4,14.863 4,11 4,7.137 7.137,4 11,4 Z m -1,1 h 1 v 6 h 6 v 1 h -7 z"
       sodipodi:nodetypes="ssssssssssccccccc" />
    <rect
       y="0"
       x="0"
       height="22"
       width="22"
       id="rect817-4"
       style="fill:#ffffff;fill-opacity:0;stroke-width:1.36692786" />
  </g>
  <g
     style="clip-rule:evenodd;fill-rule:evenodd;stroke-linejoin:round;stroke-miterlimit:1.41420996"
     id="view-history"
     transform="translate(22,32)">
    <path
       inkscape:connector-curvature="0"
       id="path2-89"
       style="fill:#ffffff"
       d="M 6,15 V 3 h 20 v 12 h 3 V 29 H 3 V 15 Z m 22,1 H 4 v 12 h 24 z m -9,6 h -6 c -1.104,0 -2,-0.896 -2,-2 0,-1.104 0.896,-2 2,-2 h 6 c 1.104,0 2,0.896 2,2 0,1.104 -0.896,2 -2,2 z m 0,-3 h -6 c -0.552,0 -1,0.448 -1,1 0,0.552 0.448,1 1,1 h 6 c 0.552,0 1,-0.448 1,-1 0,-0.552 -0.448,-1 -1,-1 z M 7,4 V 15 H 25 V 4 Z m 2,8 h 14 v 1 H 9 Z M 9,9 h 14 v 1 H 9 Z M 9,6 H 23 V 7 H 9 Z"
       sodipodi:nodetypes="ccccccccccccccsssssssssssssscccccccccccccccccccc" />
    <rect
       ry="0.91472864"
       y="0"
       x="0"
       height="32"
       width="32"
       id="rect817-5"
       style="fill:#ffffff;fill-opacity:0;stroke-width:1.04153919;stroke-miterlimit:1.41420996;stroke-dasharray:none" />
  </g>
  <g
     id="view-refresh"
     transform="translate(22)">
    <path
       id="path4597"
       d="M 16,3 A 13,13 0 0 0 3,16 13,13 0 0 0 3.9824219,20.947266 l 0.4375,-0.439454 0.3378906,-0.335937 a 12,12 0 0 1 0,-0.002 l 4.6621094,-4.66211 -0.7070313,-0.707031 -4.296875,4.296875 A 12,12 0 0 1 4,16 12,12 0 0 1 16,4 12,12 0 0 1 20.167969,4.7617188 l 0.77539,-0.7753907 A 13,13 0 0 0 16,3 Z m 12.017578,8.052734 -0.470703,0.470704 -0.002,-0.002 -5,5 0.707031,0.707032 4.330078,-4.330078 A 12,12 0 0 1 28,16 12,12 0 0 1 16,28 12,12 0 0 1 11.832031,27.238281 l -0.77539,0.775391 A 13,13 0 0 0 16,29 13,13 0 0 0 29,16 13,13 0 0 0 28.017578,11.052734 Z"
       style="fill:#ffffff;fill-opacity:1;stroke-width:0;stroke-miterlimit:1.41420996;stroke-dasharray:none"
       inkscape:connector-curvature="0" />
    <rect
       y="0"
       x="0"
       height="32"
       width="32"
       id="rect4618"
       style="fill:#ffffff;fill-opacity:0;stroke-width:10;stroke-miterlimit:4;stroke-dasharray:none" />
  </g>
  <g
     id="22-22-view-refresh">
    <path
       id="path954"
       d="m 11,2 a 9,9 0 0 0 -9,9 9,9 0 0 0 0.8867188,3.871094 L 3.375,14.382812 3.640625,14.117188 a 8,8 0 0 1 0,-0.002 L 7.3554688,10.351562 6.6445312,9.6484375 3.2832031,13.052734 A 8,8 0 0 1 3,11 8,8 0 0 1 11,3 8,8 0 0 1 14.123047,3.6347656 l 0.75,-0.75 A 9,9 0 0 0 11,2 Z M 19.113281,7.1289062 18.617188,7.625 18.359375,7.8828125 a 8,8 0 0 1 0,0.00195 l -3.714844,3.7636725 0.710938,0.703124 3.361328,-3.4042965 A 8,8 0 0 1 19,11 8,8 0 0 1 11,19 8,8 0 0 1 7.8769531,18.365234 l -0.75,0.75 A 9,9 0 0 0 11,20 9,9 0 0 0 20,11 9,9 0 0 0 19.113281,7.1289062 Z"
       style="fill:#ffffff;fill-opacity:1;stroke-width:10;stroke-miterlimit:4;stroke-dasharray:none"
       inkscape:connector-curvature="0" />
    <rect
       y="0"
       x="0"
       height="22"
       width="22"
       id="rect975"
       style="fill:#0000ff;fill-opacity:0;stroke-width:6;stroke-miterlimit:4;stroke-dasharray:none" />
  </g>
  <g
     id="16-16-view-barcode"
     transform="translate(54,48)">
    <path
       id="rect844"
       d="M 1,1 V 6 H 6 8 V 5 H 6 V 1 Z M 8,5 H 9 V 4 H 8 Z M 8,4 V 3 H 7 V 4 Z M 8,3 H 9 V 1 H 8 Z m 2,-2 v 5 h 3 v 1 h 1 V 6 h 1 V 1 Z m 4,6 v 1 h 1 V 7 Z m 0,1 h -1 v 1 h 1 z m 0,1 v 1 h 1 V 9 Z m -1,0 h -1 v 2 h 1 z M 13,8 V 7 H 12 V 8 Z M 2,2 H 5 V 5 H 2 Z m 9,0 h 3 V 5 H 11 Z M 3,3 V 4 H 4 V 3 Z m 9,0 v 1 h 1 V 3 Z M 1,7 V 8 H 3 V 7 Z M 3,8 V 9 H 4 V 8 Z M 4,8 H 5 V 7 H 4 Z m 1,0 v 2 H 1 v 5 H 6 V 10 8 Z M 7,7 v 3 h 1 v 1 H 9 V 9 H 8 V 7 Z m 2,0 v 1 h 2 V 7 Z m 1,2 v 1 h 1 V 9 Z m -8,2 h 3 v 3 H 2 Z m 8,0 v 2 h 1 v -2 z m 4,0 v 1 h 1 V 11 Z M 3,12 v 1 h 1 v -1 z m 4,0 v 1 h 1 v -1 z m 1,1 v 2 h 1 v -2 z m 4,-1 v 2 h 1 v -2 z m 0,2 h -1 v 1 h 1 z m 2,0 v 1 h 1 v -1 z"
       style="opacity:1;fill:#ffffff;fill-opacity:1;stroke:none;stroke-width:1;stroke-miterlimit:4;stroke-dasharray:none;stroke-opacity:1"
       inkscape:connector-curvature="0" />
    <rect
       y="0"
       x="0"
       height="16"
       width="16"
       id="rect934"
       style="opacity:1;fill:#00ff00;fill-opacity:0;stroke:none;stroke-width:1;stroke-miterlimit:4;stroke-dasharray:none;stroke-opacity:1" />
  </g>
  <g
     id="view-barcode"
     transform="translate(54,26)">
    <path
       id="rect940"
       d="M 2,2 V 9 H 9 V 2 Z m 8,0 v 1 h 1 V 2 Z m 1,1 v 1 h 1 V 3 Z m 0,1 h -1 v 2 h 1 z m 0,2 v 1 h 1 V 6 Z m 0,1 h -1 v 1 h 1 z m 0,1 v 2 h 1 V 8 Z m 2,-6 v 7 h 7 V 2 Z M 3,3 H 8 V 8 H 3 Z m 11,0 h 5 V 8 H 14 Z M 4,4 V 7 H 7 V 4 Z m 11,0 v 3 h 3 V 4 Z M 5,5 H 6 V 6 H 5 Z m 11,0 h 1 V 6 H 16 Z M 3,10 v 1 h 1 v -1 z m 1,1 v 1 h 2 v -1 z m 2,0 H 7 V 10 H 6 Z m 1,0 v 1 h 1 v -1 z m 1,0 h 2 V 10 H 8 Z M 3,11 H 2 v 1 h 1 z m 10,-1 v 1 h 1 v -1 z m 2,0 v 1 h 1 v -1 z m 1,1 v 1 h 1 v -1 z m 1,0 h 1 v -1 h -1 z m 1,0 v 1 h 1 v -1 z m 1,0 h 1 v -1 h -1 z m 0,1 v 1 h 1 v -1 z m 0,1 h -1 v 2 h 1 z m -1,0 v -1 h -1 v 1 z m -1,0 h -1 v 2 h 1 z m -1,2 h -1 v 1 h 1 z m 0,-2 v -1 h -1 v 1 z m -1,0 h -2 v 1 h 2 z m -4,-2 v 2 h -1 v 1 h 1 1 v -3 z m -9,2 v 7 h 7 v -7 z m 1,1 h 5 v 5 H 3 Z m 1,1 v 3 h 3 v -3 z m 8,0 v 1 h -2 v 1 h 3 v -1 -1 z m -7,1 h 1 v 1 H 5 Z m 13,0 v 1 h 1 v -1 z m 1,1 v 1 h 1 v -1 z m -4,0 v 1 h 2 v -1 z m 2,1 v 2 h 1 v -2 z m -7,0 v 1 h 1 v -1 z m 1,1 v 1 h 1 v -1 z m 2,-1 v 2 h 1 v -2 z m 2,1 v 1 h 1 v -1 z m 4,0 v 1 h 1 v -1 z"
       style="opacity:1;fill:#ffffff;fill-opacity:1;stroke:none;stroke-width:1;stroke-miterlimit:4;stroke-dasharray:none;stroke-opacity:1"
       inkscape:connector-curvature="0" />
    <rect
       y="0"
       x="0"
       height="22"
       width="22"
       id="rect1049"
       style="opacity:1;fill:#00ffff;fill-opacity:0;stroke:none;stroke-width:1;stroke-miterlimit:4;stroke-dasharray:none;stroke-opacity:1" />
  </g>
</svg>
