<?xml version="1.0" encoding="UTF-8" standalone="no"?>
<!-- Created with Inkscape (http://www.inkscape.org/) -->

<svg
   xmlns:dc="http://purl.org/dc/elements/1.1/"
   xmlns:cc="http://creativecommons.org/ns#"
   xmlns:rdf="http://www.w3.org/1999/02/22-rdf-syntax-ns#"
   xmlns:svg="http://www.w3.org/2000/svg"
   xmlns="http://www.w3.org/2000/svg"
   xmlns:sodipodi="http://sodipodi.sourceforge.net/DTD/sodipodi-0.dtd"
   xmlns:inkscape="http://www.inkscape.org/namespaces/inkscape"
   width="22"
   height="22"
   viewBox="0 0 22 22"
   id="svg2"
   version="1.1"
   inkscape:version="0.92.4 (5da689c313, 2019-01-14)"
   sodipodi:docname="vlc.svg">
  <sodipodi:namedview
     pagecolor="#ffffff"
     bordercolor="#666666"
     borderopacity="1"
     objecttolerance="10"
     gridtolerance="10"
     guidetolerance="10"
     inkscape:pageopacity="0"
     inkscape:pageshadow="2"
     inkscape:window-width="1920"
     inkscape:window-height="1011"
     id="namedview13"
     showgrid="false"
     inkscape:zoom="1"
     inkscape:cx="-132.89976"
     inkscape:cy="161.01623"
     inkscape:window-x="0"
     inkscape:window-y="0"
     inkscape:window-maximized="1"
     inkscape:current-layer="layer1"
     inkscape:pagecheckerboard="true" />
  <defs
     id="defs4">
    <style
       id="current-color-scheme"
       type="text/css">
      .ColorScheme-Text {
        color:#31363b;
      }
      </style>
  </defs>
  <metadata
     id="metadata7">
    <rdf:RDF>
      <cc:Work
         rdf:about="">
        <dc:format>image/svg+xml</dc:format>
        <dc:type
           rdf:resource="http://purl.org/dc/dcmitype/StillImage" />
        <dc:title></dc:title>
      </cc:Work>
    </rdf:RDF>
  </metadata>
  <g
     inkscape:label="Layer 1"
     inkscape:groupmode="layer"
     id="layer1"
     transform="translate(0,-1030.3621)">
    <g
       style="clip-rule:evenodd;fill-rule:evenodd;stroke-linejoin:round;stroke-miterlimit:1.41420996"
       id="vlc"
       transform="translate(0,1030.3621)">
      <path
         inkscape:connector-curvature="0"
         style="fill:#FFFFFF;fill-opacity:1"
         id="path2"
         d="M 17.499,16 H 20 v 4 H 2 V 16 H 4.501 L 8.252,2 h 5.496 z M 19,17 H 3 v 2 H 19 Z M 15.66,13 H 6.34 L 5.536,16 H 16.464 Z M 7.679,8 6.876,11 h 8.248 L 14.321,8 Z M 9.019,3 8.215,6 h 5.57 L 12.981,3 Z" />
      <rect
         ry="0.83687943"
         y="0"
         x="0"
         height="22"
         width="22"
         id="rect817"
         style="opacity:1;fill:#ffffff;fill-opacity:0;stroke-width:0.94534713;stroke-miterlimit:1.41420996;stroke-dasharray:none" />
    </g>
    <g
       transform="translate(0,3.9453125e-5)"
       id="16-16-vlc">
      <path
         inkscape:connector-curvature="0"
         id="rect823"
         transform="translate(22,1036.3621)"
         d="M 6.2617188,1 5.8613281,2 2.2617188,11 H 2 1 v 1 2 1 h 1 12 1 V 14 11 H 13.738281 L 10.138672,2 9.7382812,1 H 9.3457031 7.3398438 6.5253906 Z M 6.9394531,2 H 9.0605469 L 9.8613281,4 H 6.1386719 Z M 5.3398438,6 h 5.3203122 l 0.800782,2 H 4.5390625 Z m -1.5996094,4 h 8.5195316 l 0.40039,1 H 3.3398438 Z M 2,12 H 2.9394531 14 v 2 H 2 Z"
         style="opacity:1;fill:#ffffff;fill-opacity:1;stroke-linecap:square" />
      <rect
         y="1036.3621"
         x="22"
         height="16"
         width="16"
         id="rect906"
         style="opacity:1;fill:#ffffff;fill-opacity:0;stroke-linecap:square" />
    </g>
  </g>
</svg>
